<?xml version="1.0" encoding="utf-8"?>
<!-- Generator: Adobe Illustrator 27.9.6, SVG Export Plug-In . SVG Version: 9.03 Build 54986)  -->
<svg version="1.1" id="Layer_1" xmlns="http://www.w3.org/2000/svg" xmlns:xlink="http://www.w3.org/1999/xlink" x="0px" y="0px"
	 viewBox="0 0 1920 1080" style="enable-background:new 0 0 1920 1080;" xml:space="preserve">
<style type="text/css">
	.st0{fill:#00B0BD;}
	.st1{fill:#FFFFFF;}
	.st2{fill:#E03C31;}
	.st3{fill:#001489;}
	.st4{fill:#007749;}
	.st5{fill:#FEB81C;}
</style>
<rect class="st0" width="1920" height="1080"/>
<polygon class="st1" points="925.18,726.25 399.45,1080 617.41,1080 963.97,846.81 1920,846.81 1920,726.25 "/>
<polygon class="st1" points="402.48,0 925.74,352.1 1920,352.1 1920,231.54 964.54,231.54 620.44,0 "/>
<polygon class="st2" points="619.13,0 963.97,232.04 1920,232.04 1920,0 "/>
<polygon class="st3" points="963.97,846.81 617.42,1080 1920,1080 1920,846.81 "/>
<polygon points="0,747.59 309.36,539.43 0,331.26 "/>
<polygon class="st4" points="0,0 0,177.62 537.7,539.43 0,901.24 0,1080 399.46,1080 925.18,726.25 1920,726.25 1920,352.6 
	925.18,352.6 401.16,0 "/>
<polygon class="st5" points="0,331.26 309.36,539.43 0,747.59 0,901.24 537.7,539.43 0,177.62 "/>
</svg>
