<?xml version="1.0" encoding="utf-8"?>
<!-- Generator: Adobe Illustrator 27.9.6, SVG Export Plug-In . SVG Version: 9.03 Build 54986)  -->
<svg version="1.1" id="Layer_1" xmlns="http://www.w3.org/2000/svg" xmlns:xlink="http://www.w3.org/1999/xlink" x="0px" y="0px"
	 viewBox="0 0 512 512" style="enable-background:new 0 0 512 512;" xml:space="preserve">
<style type="text/css">
	.st0{clip-path:url(#SVGID_00000048465139766261346570000000527127942966219648_);fill:#2CB2CE;}
	.st1{fill:#FFFFFF;}
	.st2{clip-path:url(#SVGID_00000009575975318856417770000006034364535344874149_);fill:#FFFFFF;}
</style>
<g>
	<defs>
		<rect id="SVGID_1_" width="512" height="512"/>
	</defs>
	<clipPath id="SVGID_00000154388750369810290320000001842990959993530521_">
		<use xlink:href="#SVGID_1_"  style="overflow:visible;"/>
	</clipPath>
	<path style="clip-path:url(#SVGID_00000154388750369810290320000001842990959993530521_);fill:#2CB2CE;" d="M256,502.06
		c135.89,0,246.06-110.16,246.06-246.06C502.06,120.11,391.89,9.94,256,9.94S9.94,120.11,9.94,256
		C9.94,391.89,120.11,502.06,256,502.06"/>
</g>
<polygon class="st1" points="141.93,219.38 103.11,219.38 103.11,257.4 135.93,257.4 135.93,248.6 111.91,248.6 111.91,228.19 
	141.93,228.19 "/>
<polygon class="st1" points="103.11,266.61 103.11,285.42 141.93,285.42 141.93,276.62 111.91,276.62 111.91,266.61 "/>
<rect x="76.69" y="257.4" class="st1" width="26.42" height="9.21"/>
<polygon class="st1" points="148.74,285.42 156.74,266.61 197.57,266.61 205.57,285.42 195.56,285.42 191.16,275.42 163.14,275.42 
	158.74,285.42 "/>
<polygon class="st1" points="171.15,257.4 177.15,243.8 183.16,257.4 193.56,257.4 177.15,219.38 160.74,257.4 "/>
<polygon class="st1" points="249.6,219.38 260,219.38 276.41,247.8 291.62,219.38 302.03,219.38 280.41,257.4 271.21,257.4 "/>
<rect x="271.01" y="266.61" class="st1" width="9.61" height="18.81"/>
<rect x="309.23" y="266.61" class="st1" width="9.61" height="18.81"/>
<rect x="348.06" y="266.61" class="st1" width="9.61" height="18.81"/>
<polygon class="st1" points="309.23,219.38 318.84,219.38 318.84,249.4 348.06,249.4 348.06,219.38 357.66,219.38 357.66,257.4 
	309.23,257.4 "/>
<g>
	<defs>
		<rect id="SVGID_00000072245611142876592370000006349949141420910498_" width="512" height="512"/>
	</defs>
	<clipPath id="SVGID_00000067952086415470562500000012917836171852969398_">
		<use xlink:href="#SVGID_00000072245611142876592370000006349949141420910498_"  style="overflow:visible;"/>
	</clipPath>
	<path style="clip-path:url(#SVGID_00000067952086415470562500000012917836171852969398_);fill:#FFFFFF;" d="M211.97,269.41l-4,6.4
		c0,0,6.8,9.61,20.81,9.61c14.01,0,21.61-8.81,21.61-18.81h-8c0,0,0.4,10.81-13.21,10.81C217.58,277.42,211.97,269.41,211.97,269.41
		"/>
	<path style="clip-path:url(#SVGID_00000067952086415470562500000012917836171852969398_);fill:#FFFFFF;" d="M248.4,257.4
		c0,0-3.2-9.21-19.61-10.81c0,0-13.21-0.4-11.61-10.01c1.6-9.61,10.01-8.4,10.01-8.4s6.8-0.8,13.21,6.4l4.4-7.6
		c0,0-6.4-7.6-18.01-7.6c-11.21,0-18.03,9.6-18.41,17.61c-0.4,8.4,6.4,15.21,13.21,16.81c6.8,1.6,13.61,2.4,14.81,3.6H248.4z"/>
	<path style="clip-path:url(#SVGID_00000067952086415470562500000012917836171852969398_);fill:#FFFFFF;" d="M373.27,257.4
		c0,0-2.41-10.21,4.4-20.01c6.4-9.21,19.21-8.8,19.21-8.8s22.01,0.4,22.81,22.01c0,0,0.8,10.01-5.6,16.65l6.4,7.77
		c0,0,9.17-9.21,8.81-23.21c-0.4-15.61-11.61-32.83-33.62-32.42c-21.21,0.4-31.62,18.81-31.62,32.42v5.6"/>
	<path style="clip-path:url(#SVGID_00000067952086415470562500000012917836171852969398_);fill:#FFFFFF;" d="M366.87,266.61h10.81
		c0,0,10.8,14.81,28.82,6.4l6.8,8.01c0,0-7.2,4.4-18.01,4.4C384.48,285.42,372.87,278.62,366.87,266.61"/>
	<path style="clip-path:url(#SVGID_00000067952086415470562500000012917836171852969398_);fill:#FFFFFF;" d="M413.29,281.02
		c0,0,2.7-1.72,4-2.8c2.4-2,3.2-3.2,3.2-3.2l14.81,17.61H422.9L413.29,281.02z"/>
</g>
</svg>
