<?xml version="1.0" encoding="utf-8"?>
<!-- Generator: Adobe Illustrator 27.9.6, SVG Export Plug-In . SVG Version: 9.03 Build 54986)  -->
<svg version="1.1" id="Layer_1" xmlns="http://www.w3.org/2000/svg" xmlns:xlink="http://www.w3.org/1999/xlink" x="0px" y="0px"
	 viewBox="0 0 512 512" style="enable-background:new 0 0 512 512;" xml:space="preserve">
<style type="text/css">
	.st0{fill:#FFFFFF;}
	.st1{clip-path:url(#SVGID_00000040569668070469681470000007894656611108476830_);fill:#FFFFFF;}
</style>
<polygon points="117.91,112.9 117.91,362.57 394.09,399.1 394.09,112.9 "/>
<polygon class="st0" points="166.82,221.08 213.67,221.08 213.67,234 184.35,234 184.35,243.62 211.55,243.62 211.55,255.96 
	184.35,255.96 184.35,267.89 214.52,267.89 214.52,281.6 166.82,281.6 "/>
<polygon class="st0" points="291.33,221.08 309.02,221.08 309.02,242.26 328.34,242.26 328.34,221.08 346.1,221.08 346.1,281.6 
	328.34,281.6 328.34,257.12 309.02,257.12 309.02,281.6 291.33,281.6 "/>
<g>
	<defs>
		<rect id="SVGID_1_" width="512" height="512"/>
	</defs>
	<clipPath id="SVGID_00000137133954040728820480000008446140282401574791_">
		<use xlink:href="#SVGID_1_"  style="overflow:visible;"/>
	</clipPath>
	<path style="clip-path:url(#SVGID_00000137133954040728820480000008446140282401574791_);fill:#FFFFFF;" d="M226.64,270.23
		c-0.52-0.96-0.98-1.98-1.4-3.03l-6.68,14.4h19.43c-0.28-0.13-0.57-0.26-0.84-0.41C232.83,278.88,229.33,275.23,226.64,270.23"/>
	<path style="clip-path:url(#SVGID_00000137133954040728820480000008446140282401574791_);fill:#FFFFFF;" d="M269.78,280.64
		c-0.55,0.34-1.12,0.66-1.71,0.96h19.64l-6.66-14.36c-0.25,0.64-0.51,1.26-0.79,1.85c-1.49,3.12-3.46,5.76-5.86,7.92
		C273.01,278.38,271.47,279.6,269.78,280.64"/>
	<path style="clip-path:url(#SVGID_00000137133954040728820480000008446140282401574791_);fill:#FFFFFF;" d="M252.78,218.2
		c1.66,0,3.24,0.09,4.76,0.27l-4.67-10.08l-4.64,10.01c0.95-0.09,1.93-0.15,2.93-0.17C251.69,218.21,252.23,218.2,252.78,218.2"/>
	<path style="clip-path:url(#SVGID_00000137133954040728820480000008446140282401574791_);fill:#FFFFFF;" d="M273.98,228.16
		c-2.63-2.88-5.88-4.98-9.7-6.33c-3.37-1.18-7.19-1.78-11.48-1.78c-2.89,0-5.57,0.29-8.04,0.87c-5.19,1.2-9.49,3.66-12.88,7.39
		c-5.01,5.5-7.51,13.2-7.51,23.08c0,2.62,0.18,5.07,0.52,7.36c0.59,3.91,1.68,7.34,3.27,10.31c2.53,4.71,5.83,8.15,9.9,10.32
		c4.07,2.17,9.21,3.26,15.42,3.26c6.11,0,11.21-1.26,15.31-3.78c4.09-2.52,7.22-6.04,9.39-10.57c1.81-3.78,2.85-8.46,3.15-14.01
		c0.06-1.1,0.1-2.22,0.1-3.39C281.41,241.14,278.94,233.57,273.98,228.16 M261.4,264.71c-2,2.62-4.84,3.92-8.49,3.92
		c-3.55,0-6.37-1.33-8.43-4c-2.07-2.67-3.1-7.06-3.1-13.17c0-6.16,1.04-10.58,3.12-13.25c2.08-2.67,4.83-4,8.26-4
		c3.58,0,6.42,1.31,8.51,3.94c2.09,2.63,3.14,6.79,3.14,12.49C264.4,257.41,263.4,262.1,261.4,264.71"/>
</g>
</svg>
