<?xml version="1.0" encoding="utf-8"?>
<!-- Generator: Adobe Illustrator 27.9.6, SVG Export Plug-In . SVG Version: 9.03 Build 54986)  -->
<svg version="1.1" id="Layer_1" xmlns="http://www.w3.org/2000/svg" xmlns:xlink="http://www.w3.org/1999/xlink" x="0px" y="0px"
	 viewBox="0 0 512 512" style="enable-background:new 0 0 512 512;" xml:space="preserve">
<style type="text/css">
	.st0{clip-path:url(#SVGID_00000135690854759484372710000009397159035596235922_);fill:#57BBB6;}
	.st1{clip-path:url(#SVGID_00000135690854759484372710000009397159035596235922_);fill:#FFFFFF;}
</style>
<g>
	<defs>
		<rect id="SVGID_1_" width="512" height="512"/>
	</defs>
	<clipPath id="SVGID_00000060026894671959295850000006098885186076418697_">
		<use xlink:href="#SVGID_1_"  style="overflow:visible;"/>
	</clipPath>
	<path style="clip-path:url(#SVGID_00000060026894671959295850000006098885186076418697_);fill:#57BBB6;" d="M256,502.06
		c135.89,0,246.06-110.16,246.06-246.06C502.06,120.11,391.89,9.94,256,9.94S9.94,120.11,9.94,256
		C9.94,391.89,120.11,502.06,256,502.06"/>
	<path style="clip-path:url(#SVGID_00000060026894671959295850000006098885186076418697_);fill:#FFFFFF;" d="M170.42,287.04h0.09
		c0.35,0,0.74-0.01,1.12-0.02c3.81-0.11,7.64-0.67,11.39-1.67c8.71-2.32,14.12-7.59,16.54-16.09c1.26-4.42,1.89-8.91,1.89-13.33v0
		c-0.01-4.44-0.66-8.92-1.94-13.33c-2.28-7.87-7.08-12.89-14.67-15.34l-0.09-0.03c-0.71-0.24-1.39-0.45-2.08-0.63
		c-1.7-0.45-3.46-0.82-5.24-1.08c-0.23-0.04-0.44-0.07-0.65-0.1l-0.59-0.08c-0.43-0.06-0.85-0.1-1.27-0.14l-0.19-0.02
		c-0.49-0.05-0.98-0.09-1.47-0.12l-0.05,0c-1.02-0.07-2.04-0.1-3.03-0.1l-0.13,0c-0.36,0-0.74,0.01-1.12,0.02
		c-3.81,0.1-7.64,0.66-11.4,1.67c-8.71,2.32-14.12,7.58-16.54,16.08c-1.26,4.42-1.89,8.91-1.89,13.33v0.01
		c0.01,4.43,0.66,8.91,1.94,13.32c2.28,7.87,7.08,12.89,14.67,15.34l0.09,0.03c0.7,0.24,1.39,0.45,2.08,0.63
		c1.7,0.45,3.46,0.81,5.24,1.08c0.23,0.04,0.45,0.07,0.67,0.1l0.57,0.08c0.44,0.05,0.86,0.1,1.28,0.14l0.14,0.01
		c0.51,0.05,0.99,0.09,1.47,0.12l0.1,0.01c1.01,0.07,2.04,0.1,3.03,0.09H170.42z M170.49,298.76l-0.1,0c-1.21,0-2.47-0.03-3.73-0.11
		l-0.12-0.01c-0.62-0.04-1.24-0.09-1.85-0.15l-0.16-0.02c-0.59-0.06-1.12-0.12-1.64-0.19c-0.18-0.02-0.37-0.05-0.56-0.08l-0.15-0.02
		c-0.28-0.04-0.55-0.08-0.83-0.12c-2.18-0.33-4.35-0.78-6.45-1.34c-0.93-0.24-1.88-0.53-2.81-0.85
		c-11.23-3.64-18.94-11.67-22.29-23.22c-1.55-5.34-2.36-10.79-2.4-16.2l-0.09-0.74l0.1-0.38c0.06-5.27,0.84-10.59,2.33-15.82
		c3.55-12.45,12.12-20.82,24.8-24.2c4.64-1.24,9.37-1.93,14.07-2.06c0.46-0.01,0.95-0.02,1.44-0.03l0.14,0
		c1.2,0,2.46,0.03,3.71,0.11l0.16,0.01c0.61,0.04,1.22,0.09,1.83,0.15l0.2,0.02c0.55,0.05,1.08,0.11,1.6,0.18
		c0.19,0.02,0.38,0.05,0.57,0.08l0.16,0.02c0.27,0.04,0.54,0.08,0.81,0.12c2.17,0.33,4.35,0.78,6.45,1.34
		c0.93,0.24,1.87,0.53,2.82,0.85c11.23,3.64,18.93,11.67,22.28,23.22c1.58,5.46,2.39,11.04,2.4,16.57v0.01
		c0.01,5.51-0.78,11.08-2.34,16.55c-3.54,12.45-12.12,20.82-24.8,24.2c-4.63,1.24-9.37,1.93-14.07,2.06
		c-0.47,0.01-0.96,0.02-1.45,0.03H170.49z"/>
	<path style="clip-path:url(#SVGID_00000060026894671959295850000006098885186076418697_);fill:#FFFFFF;" d="M373.23,287.04h0.09
		c0.35,0,0.74-0.01,1.12-0.02c3.81-0.11,7.64-0.67,11.39-1.67c8.71-2.32,14.12-7.59,16.54-16.09c1.26-4.42,1.89-8.91,1.89-13.33v0
		c-0.01-4.44-0.66-8.92-1.94-13.33c-2.28-7.87-7.08-12.89-14.67-15.34l-0.09-0.03c-0.7-0.24-1.4-0.45-2.08-0.63
		c-1.7-0.45-3.46-0.82-5.24-1.08c-0.23-0.04-0.44-0.07-0.65-0.1l-0.58-0.08c-0.43-0.06-0.85-0.1-1.27-0.14l-0.19-0.02
		c-0.49-0.05-0.98-0.09-1.47-0.12l-0.05,0c-1.02-0.07-2.04-0.1-3.03-0.1l-0.13,0c-0.36,0-0.74,0.01-1.12,0.02
		c-3.81,0.1-7.64,0.66-11.39,1.67c-8.71,2.32-14.12,7.58-16.54,16.08c-1.26,4.42-1.89,8.91-1.89,13.33
		c0.01,4.44,0.66,8.92,1.94,13.33c2.28,7.87,7.08,12.89,14.67,15.34l0.09,0.03c0.7,0.24,1.39,0.45,2.08,0.63
		c1.7,0.45,3.46,0.81,5.24,1.08c0.23,0.04,0.45,0.07,0.67,0.1l0.56,0.08c0.44,0.05,0.86,0.1,1.28,0.14l0.14,0.01
		c0.52,0.05,1,0.09,1.47,0.12l0.09,0.01c1.01,0.06,2.03,0.1,3.03,0.09H373.23z M373.3,298.76l-0.1,0c-1.21,0-2.48-0.03-3.73-0.11
		l-0.12-0.01c-0.62-0.04-1.23-0.09-1.85-0.15l-0.16-0.02c-0.59-0.06-1.12-0.12-1.64-0.19c-0.18-0.02-0.37-0.05-0.56-0.08l-0.15-0.02
		c-0.28-0.04-0.55-0.08-0.83-0.12c-2.18-0.33-4.35-0.78-6.45-1.34c-0.93-0.24-1.88-0.53-2.82-0.85
		c-11.23-3.64-18.94-11.67-22.29-23.22c-1.59-5.46-2.39-11.04-2.4-16.58c-0.01-5.52,0.78-11.09,2.34-16.56
		c3.55-12.45,12.12-20.82,24.8-24.2c4.64-1.24,9.37-1.93,14.07-2.06c0.46-0.01,0.95-0.02,1.44-0.03l0.14,0
		c1.2,0.01,2.46,0.03,3.71,0.11l0.16,0.01c0.61,0.04,1.22,0.09,1.83,0.15l0.2,0.02c0.55,0.05,1.07,0.11,1.6,0.18
		c0.18,0.02,0.38,0.05,0.57,0.08l0.16,0.02c0.27,0.04,0.54,0.08,0.81,0.12c2.17,0.33,4.35,0.78,6.45,1.34
		c0.92,0.24,1.87,0.53,2.82,0.85c11.23,3.64,18.93,11.67,22.28,23.22c1.58,5.46,2.39,11.04,2.4,16.57v0.01
		c0.01,5.51-0.78,11.08-2.34,16.55c-3.55,12.45-12.12,20.82-24.8,24.2c-4.63,1.24-9.37,1.93-14.07,2.06
		c-0.47,0.01-0.96,0.02-1.45,0.03H373.3z"/>
	<path style="clip-path:url(#SVGID_00000060026894671959295850000006098885186076418697_);fill:#FFFFFF;" d="M273.21,298.76h-0.11
		c-1.31,0-2.51-0.04-3.68-0.12l-0.12-0.01c-0.6-0.03-1.19-0.08-1.77-0.13l-0.38-0.03c-0.03,0-0.07-0.01-0.1-0.01l-0.05-0.01
		c-0.43-0.05-0.87-0.1-1.31-0.16c-0.27-0.03-0.56-0.06-0.83-0.11c-0.32-0.04-0.61-0.08-0.88-0.13c-2.12-0.32-4.21-0.75-6.37-1.31
		c-0.9-0.24-1.82-0.52-2.83-0.86c-11.21-3.63-18.92-11.66-22.28-23.21c-1.58-5.47-2.38-11.04-2.4-16.56
		c0-5.54,0.79-11.11,2.34-16.58c3.54-12.46,12.12-20.83,24.8-24.2c4.68-1.24,9.42-1.93,14.08-2.06c0.45-0.02,0.95-0.03,1.45-0.03
		h0.11c1.32,0,2.52,0.04,3.68,0.12l0.11,0.01c0.62,0.04,1.25,0.09,1.85,0.14l0.56,0.07c0.45,0.05,0.9,0.1,1.35,0.16
		c0.13,0.02,0.22,0.03,0.31,0.04l0.36,0.03l0.34,0.07c0.11,0.02,0.22,0.03,0.34,0.05l0.14,0.02c2.2,0.34,4.3,0.78,6.44,1.34
		c1.03,0.27,1.96,0.55,2.83,0.85c10.68,3.48,18.22,10.97,21.79,21.66c1.03,3.07-0.63,6.39-3.7,7.42c-3.07,1.03-6.39-0.63-7.42-3.7
		c-2.42-7.24-7.11-11.9-14.33-14.24l-0.08-0.03c-0.63-0.21-1.31-0.42-2.08-0.62c-1.71-0.45-3.41-0.8-5.19-1.08
		c-0.23-0.03-0.46-0.06-0.68-0.1c-0.22-0.02-0.44-0.05-0.66-0.08c-0.38-0.05-0.75-0.09-1.11-0.13l-0.59-0.07
		c-0.32-0.03-0.65-0.05-0.98-0.08l-0.29-0.02c-0.92-0.06-1.91-0.1-3-0.1h-0.11c-0.36,0-0.72,0.02-1.08,0.03
		c-3.82,0.1-7.65,0.66-11.44,1.67c-8.7,2.32-14.11,7.58-16.53,16.07c-1.26,4.42-1.89,8.92-1.89,13.36
		c0.01,4.42,0.67,8.91,1.94,13.32c2.29,7.87,7.09,12.89,14.67,15.33l0.09,0.03c0.76,0.26,1.45,0.47,2.08,0.64
		c1.77,0.46,3.47,0.81,5.21,1.07l0.29,0.05c0.09,0.02,0.19,0.03,0.29,0.04l0.2,0.03c0.07,0.01,0.14,0.02,0.21,0.03l0.31,0.03
		c0.36,0.05,0.71,0.1,1.06,0.13c0.15,0.01,0.31,0.02,0.49,0.05c0.38,0.03,0.76,0.06,1.15,0.09l0.28,0.01c0.94,0.07,1.92,0.1,3,0.1
		h0.11c0.36,0,0.72-0.01,1.1-0.03c3.87-0.1,7.68-0.66,11.41-1.66c8.3-2.2,13.58-7.05,16.16-14.82c1.02-3.07,4.34-4.73,7.41-3.71
		c3.07,1.02,4.73,4.34,3.71,7.41c-3.82,11.48-12.21,19.25-24.26,22.45c-4.6,1.24-9.33,1.93-14.06,2.05
		C274.21,298.75,273.71,298.76,273.21,298.76"/>
	<path style="clip-path:url(#SVGID_00000060026894671959295850000006098885186076418697_);fill:#FFFFFF;" d="M103.25,298.29
		c-3.24,0-5.86-2.62-5.86-5.86v-42.29c0-3.24,2.62-5.86,5.86-5.86c3.24,0,5.86,2.62,5.86,5.86v42.29
		C109.11,295.67,106.49,298.29,103.25,298.29"/>
	<path style="clip-path:url(#SVGID_00000060026894671959295850000006098885186076418697_);fill:#FFFFFF;" d="M110.64,222.06
		c0,4.08-3.31,7.4-7.4,7.4s-7.4-3.31-7.4-7.4c0-4.08,3.31-7.39,7.4-7.39S110.64,217.98,110.64,222.06"/>
</g>
</svg>
