<?xml version="1.0" encoding="utf-8"?>
<!-- Generator: Adobe Illustrator 27.9.6, SVG Export Plug-In . SVG Version: 9.03 Build 54986)  -->
<svg version="1.1" id="Layer_1" xmlns="http://www.w3.org/2000/svg" xmlns:xlink="http://www.w3.org/1999/xlink" x="0px" y="0px"
	 viewBox="0 0 1024 1024" style="enable-background:new 0 0 1024 1024;" xml:space="preserve">
<style type="text/css">
	.st0{fill:#57BBB6;}
	.st1{clip-path:url(#SVGID_00000073695817725799125150000000578326092219149237_);fill:#FFFFFF;}
</style>
<rect class="st0" width="1024" height="1024"/>
<g>
	<defs>
		<rect id="SVGID_1_" width="1024" height="1024"/>
	</defs>
	<clipPath id="SVGID_00000017482863121732668380000012987357135718944678_">
		<use xlink:href="#SVGID_1_"  style="overflow:visible;"/>
	</clipPath>
	<path style="clip-path:url(#SVGID_00000017482863121732668380000012987357135718944678_);fill:#FFFFFF;" d="M668.52,512
		c0,86.45-70.08,156.52-156.52,156.52c-86.45,0-156.52-70.08-156.52-156.52c0-86.44,70.08-156.52,156.52-156.52
		S668.52,425.56,668.52,512 M704.31,512c0-106.21-86.1-192.31-192.31-192.31S319.69,405.79,319.69,512
		c0,106.21,86.1,192.31,192.31,192.31C618.21,704.31,704.31,618.21,704.31,512"/>
	<path style="clip-path:url(#SVGID_00000017482863121732668380000012987357135718944678_);fill:#FFFFFF;" d="M738.54,642.69
		c10.15-17.59,32.64-23.63,50.23-13.48c17.59,10.15,23.63,32.64,13.48,50.23c-10.15,17.59-32.64,23.62-50.23,13.48
		C734.43,682.77,728.4,660.28,738.54,642.69 M731.26,638.49c-12.47,21.61-5.06,49.24,16.56,61.71
		c21.61,12.47,49.24,5.06,61.71-16.56c12.47-21.61,5.06-49.24-16.56-61.71C771.36,609.46,743.73,616.87,731.26,638.49
		 M213.69,475.23c20.31,0,36.77,16.46,36.77,36.77c0,20.31-16.46,36.77-36.77,36.77c-20.31,0-36.77-16.46-36.77-36.77
		C176.91,491.69,193.38,475.23,213.69,475.23 M213.69,466.82c-24.95,0-45.18,20.23-45.18,45.18c0,24.95,20.23,45.18,45.18,45.18
		s45.18-20.23,45.18-45.18C258.87,487.05,238.64,466.82,213.69,466.82 M285.45,381.31c-10.15,17.59-32.64,23.63-50.23,13.48
		c-17.59-10.15-23.63-32.64-13.48-50.23c10.15-17.59,32.64-23.62,50.23-13.48C289.57,341.23,295.6,363.72,285.45,381.31
		 M292.74,385.51c12.47-21.61,5.05-49.24-16.56-61.71s-49.24-5.05-61.71,16.56c-12.47,21.62-5.05,49.24,16.56,61.71
		S280.27,407.12,292.74,385.51 M271.98,692.92c-17.59,10.15-40.08,4.11-50.23-13.48c-10.15-17.59-4.11-40.08,13.48-50.23
		c17.59-10.15,40.08-4.11,50.23,13.48C295.6,660.28,289.57,682.77,271.98,692.92 M292.74,638.49
		c-12.47-21.61-40.1-29.03-61.71-16.56s-29.03,40.1-16.56,61.71c12.47,21.61,40.1,29.03,61.71,16.56
		C297.79,687.73,305.21,660.1,292.74,638.49 M381.23,285.5c-17.59,10.15-40.08,4.13-50.23-13.46
		c-10.15-17.59-4.13-40.08,13.46-50.23c17.59-10.15,40.08-4.13,50.23,13.46C404.84,252.86,398.82,275.35,381.23,285.5
		 M401.97,231.06c-12.48-21.61-40.11-29.01-61.72-16.54c-21.61,12.48-29.01,40.11-16.54,61.72c12.48,21.61,40.11,29.01,61.72,16.54
		C407.04,280.31,414.45,252.67,401.97,231.06 M394.69,788.73c-10.15,17.59-32.65,23.61-50.23,13.46
		c-17.59-10.15-23.61-32.64-13.46-50.23c10.16-17.59,32.65-23.61,50.23-13.46C398.82,748.65,404.84,771.14,394.69,788.73
		 M401.97,792.94c12.48-21.61,5.07-49.24-16.54-61.72c-21.61-12.48-49.24-5.07-61.72,16.54c-12.48,21.61-5.07,49.24,16.54,61.72
		C361.86,821.95,389.49,814.55,401.97,792.94 M548.77,213.69c0,20.31-16.46,36.77-36.77,36.77c-20.31,0-36.77-16.46-36.77-36.77
		c0-20.31,16.46-36.77,36.77-36.77C532.31,176.91,548.77,193.38,548.77,213.69 M557.18,213.69c0-24.95-20.23-45.18-45.18-45.18
		c-24.95,0-45.18,20.23-45.18,45.18s20.23,45.18,45.18,45.18C536.95,258.87,557.18,238.64,557.18,213.69 M548.77,810.31
		c0,20.31-16.46,36.77-36.77,36.77c-20.31,0-36.77-16.46-36.77-36.77c0-20.31,16.46-36.77,36.77-36.77
		C532.31,773.54,548.77,790,548.77,810.31 M557.18,810.31c0-24.95-20.23-45.18-45.18-45.18c-24.95,0-45.18,20.23-45.18,45.18
		s20.23,45.18,45.18,45.18C536.95,855.49,557.18,835.26,557.18,810.31 M693,272.04c-10.15,17.59-32.65,23.61-50.23,13.46
		c-17.59-10.16-23.62-32.65-13.46-50.23c10.15-17.59,32.65-23.61,50.23-13.46C697.13,231.96,703.16,254.45,693,272.04
		 M700.28,276.24c12.48-21.61,5.07-49.24-16.54-61.72c-21.61-12.48-49.24-5.07-61.72,16.54c-12.48,21.61-5.07,49.24,16.54,61.72
		C660.18,305.26,687.81,297.85,700.28,276.24 M679.54,802.19c-17.59,10.15-40.08,4.13-50.23-13.46
		c-10.16-17.59-4.13-40.08,13.46-50.23c17.59-10.15,40.08-4.13,50.23,13.46C703.16,769.55,697.13,792.04,679.54,802.19
		 M700.28,747.75c-12.48-21.61-40.11-29.01-61.72-16.54c-21.61,12.48-29.01,40.11-16.54,61.72c12.48,21.61,40.11,29.01,61.72,16.54
		C705.36,797,712.76,769.36,700.28,747.75 M788.77,394.79c-17.59,10.15-40.08,4.11-50.23-13.48c-10.15-17.59-4.11-40.08,13.48-50.23
		c17.59-10.15,40.08-4.11,50.23,13.48C812.4,362.15,806.37,384.64,788.77,394.79 M809.53,340.36
		c-12.47-21.61-40.1-29.03-61.71-16.56c-21.61,12.47-29.03,40.1-16.56,61.71c12.47,21.61,40.1,29.03,61.71,16.56
		C814.59,389.6,822,361.97,809.53,340.36 M847.09,512c0,20.31-16.46,36.77-36.77,36.77c-20.31,0-36.77-16.46-36.77-36.77
		c0-20.31,16.46-36.77,36.77-36.77C830.62,475.23,847.09,491.69,847.09,512 M855.49,512c0-24.95-20.23-45.18-45.18-45.18
		s-45.18,20.23-45.18,45.18c0,24.95,20.23,45.18,45.18,45.18S855.49,536.95,855.49,512"/>
	<path style="clip-path:url(#SVGID_00000017482863121732668380000012987357135718944678_);fill:#FFFFFF;" d="M755.2,652.3
		c-4.84,8.39-1.96,19.13,6.43,23.97c8.4,4.84,19.13,1.96,23.97-6.43c4.84-8.4,1.96-19.13-6.43-23.97
		C770.77,641.02,760.04,643.9,755.2,652.3 M237.35,498.35c-7.54-13.07-24.24-17.55-37.31-10.01c-13.07,7.54-17.55,24.24-10.01,37.3
		c7.54,13.07,24.24,17.55,37.31,10.01C240.4,528.12,244.88,511.42,237.35,498.35 M268.8,354.16c-4.84-8.4-15.57-11.27-23.97-6.43
		c-8.4,4.84-11.28,15.57-6.43,23.97c4.84,8.4,15.58,11.28,23.97,6.43C270.77,373.29,273.65,362.56,268.8,354.16 M268.8,652.3
		c-4.84-8.4-15.57-11.27-23.97-6.43s-11.28,15.57-6.43,23.97c4.84,8.4,15.57,11.27,23.97,6.43
		C270.77,671.42,273.65,660.69,268.8,652.3 M386.5,240.01c-7.54-13.07-24.24-17.55-37.31-10.01c-13.06,7.54-17.55,24.24-10.01,37.31
		c7.54,13.07,24.24,17.55,37.31,10.01C389.56,269.77,394.04,253.07,386.5,240.01 M386.5,756.7c-7.54-13.07-24.24-17.55-37.31-10.01
		c-13.06,7.54-17.55,24.24-10.01,37.31c7.54,13.07,24.24,17.55,37.31,10.01C389.56,786.47,394.04,769.76,386.5,756.7 M527.2,204.92
		c-4.84-8.39-15.57-11.27-23.97-6.43c-8.4,4.84-11.27,15.57-6.43,23.97c4.84,8.4,15.58,11.27,23.97,6.43
		C529.16,224.04,532.04,213.31,527.2,204.92 M527.2,801.54c-4.84-8.4-15.57-11.27-23.97-6.43c-8.4,4.84-11.27,15.58-6.43,23.97
		c4.84,8.39,15.58,11.27,23.97,6.43C529.16,820.67,532.04,809.94,527.2,801.54 M684.81,267.3c7.54-13.07,3.06-29.77-10.01-37.31
		c-13.07-7.54-29.77-3.06-37.31,10.01c-7.54,13.07-3.06,29.77,10.01,37.31C660.57,284.85,677.28,280.37,684.81,267.3 M684.81,783.99
		c7.54-13.07,3.06-29.77-10.01-37.31c-13.07-7.54-29.77-3.06-37.31,10.01c-7.54,13.07-3.06,29.77,10.01,37.31
		C660.57,801.54,677.28,797.06,684.81,783.99 M785.6,371.7c4.84-8.4,1.96-19.13-6.43-23.97c-8.4-4.84-19.13-1.96-23.97,6.43
		c-4.84,8.4-1.96,19.13,6.43,23.97C770.02,382.98,780.76,380.1,785.6,371.7 M823.96,488.34c-13.07-7.54-29.77-3.06-37.31,10.01
		c-7.54,13.07-3.06,29.77,10.01,37.3c13.07,7.54,29.77,3.06,37.31-10.01C841.51,512.58,837.03,495.88,823.96,488.34"/>
	<path style="clip-path:url(#SVGID_00000017482863121732668380000012987357135718944678_);fill:#FFFFFF;" d="M461,485.83
		c0-3.83,0.88-14.15,0.44-16.07c-0.44-2.21-11.06-10.17-14.9-13.75v49.05c0,0-7.37,9.02-8.4,10.5c-0.58,0.93-14.44,0.63-15.62,0.34
		c-3.46-1.03-12.37-9.83-12.68-9.14c-1.47,1.22-7.95,6.24-8.85,7.37c0,0,21.74,42.16,24.91,46.88c0.15,2.51,0,14.74,0.14,16.91
		c-0.29,1.81,2.96,12.28,3.84,15.96c1.86,3.7,25.64,10.13,25.64,10.13c3.1-0.69,21.42-5.91,28.3-7.81
		c6.79-1.87,22.2-0.95,27.65-1.43c5.09-0.45,24.99-6.93,33.83-9.43c10.32-7.81,43.76-45.84,49.37-52.82
		c7.67-9.54,18.88-13.37,21.83-20.15c2.95-6.78,5.01-17.1,6.49-24.76c0,0-9.69,0.26-11.21-0.49c0,0,0.15-32.58-0.74-37
		c-0.89-4.42-10.75-28.85-11.86-30.07c-0.88,0-33.54-0.11-34.35,0c-4.79,4.46-28.29,25.88-33.46,30.4
		c-3.75,3.29-3.66,12.78-12.36,15.72c-8.7,2.95-28.01-1.97-29.97-0.69c-2.5,1.62-19.21,20.3-20.21,20.3L461,485.83z"/>
</g>
</svg>
