<?xml version="1.0" encoding="utf-8"?>
<!-- Generator: Adobe Illustrator 27.9.6, SVG Export Plug-In . SVG Version: 9.03 Build 54986)  -->
<svg version="1.1" id="Layer_1" xmlns="http://www.w3.org/2000/svg" xmlns:xlink="http://www.w3.org/1999/xlink" x="0px" y="0px"
	 viewBox="0 0 1920 1080" style="enable-background:new 0 0 1920 1080;" xml:space="preserve">
<style type="text/css">
	.st0{fill:#57BBB6;}
	.st1{clip-path:url(#SVGID_00000006696970690075739990000011733334281542309030_);fill:#8BCBC8;}
	.st2{clip-path:url(#SVGID_00000163773483292634158560000014111882159428796298_);fill:#8BCBC8;}
	.st3{clip-path:url(#SVGID_00000163773483292634158560000014111882159428796298_);fill:#FFFFFF;}
</style>
<rect class="st0" width="1920" height="1080"/>
<g>
	<defs>
		<rect id="SVGID_1_" width="1920" height="1080"/>
	</defs>
	<clipPath id="SVGID_00000079458881782756627830000000102835611102680454_">
		<use xlink:href="#SVGID_1_"  style="overflow:visible;"/>
	</clipPath>
	<path style="clip-path:url(#SVGID_00000079458881782756627830000000102835611102680454_);fill:#8BCBC8;" d="M438.6,0
		c0,53.35-43.25,96.6-96.6,96.6c-53.35,0-96.6-43.25-96.6-96.6c0-53.35,43.25-96.6,96.6-96.6C395.35-96.6,438.6-53.35,438.6,0
		 M460.69,0c0-65.55-53.14-118.69-118.69-118.69c-65.55,0-118.69,53.14-118.69,118.69c0,65.55,53.14,118.69,118.69,118.69
		C407.55,118.69,460.69,65.55,460.69,0"/>
	<path style="clip-path:url(#SVGID_00000079458881782756627830000000102835611102680454_);fill:#8BCBC8;" d="M481.82,80.66
		c6.26-10.86,20.14-14.58,31-8.32c10.86,6.26,14.58,20.14,8.32,31c-6.26,10.86-20.14,14.58-31,8.32
		C479.28,105.4,475.56,91.52,481.82,80.66 M477.33,78.07c-7.7,13.34-3.12,30.39,10.22,38.09c13.34,7.7,30.39,3.12,38.09-10.22
		c7.7-13.34,3.12-30.39-10.22-38.09C502.07,60.15,485.02,64.73,477.33,78.07 M157.89-22.7c12.54,0,22.7,10.16,22.7,22.7
		c0,12.54-10.16,22.7-22.7,22.7s-22.7-10.16-22.7-22.7C135.19-12.53,145.35-22.7,157.89-22.7 M157.89-27.88
		C142.49-27.88,130-15.4,130,0c0,15.4,12.48,27.89,27.89,27.89S185.77,15.4,185.77,0C185.77-15.4,173.29-27.88,157.89-27.88
		 M202.18-80.66c-6.26,10.86-20.14,14.58-31,8.32c-10.86-6.26-14.58-20.14-8.32-31c6.26-10.86,20.14-14.58,31-8.32
		C204.72-105.4,208.44-91.52,202.18-80.66 M206.68-78.07c7.7-13.34,3.12-30.39-10.22-38.09c-13.34-7.7-30.39-3.12-38.09,10.22
		c-7.7,13.34-3.12,30.39,10.22,38.09C181.93-60.15,198.98-64.73,206.68-78.07 M193.86,111.66c-10.86,6.26-24.74,2.54-31-8.32
		c-6.26-10.86-2.54-24.74,8.32-31c10.86-6.26,24.74-2.54,31,8.32C208.44,91.52,204.72,105.4,193.86,111.66 M206.68,78.07
		c-7.7-13.34-24.75-17.92-38.09-10.22c-13.34,7.7-17.92,24.75-10.22,38.09c7.7,13.34,24.75,17.92,38.09,10.22
		S214.37,91.41,206.68,78.07 M261.29-139.79c-10.86,6.27-24.74,2.55-31-8.31c-6.27-10.85-2.55-24.74,8.31-31
		c10.86-6.27,24.74-2.55,31,8.31S272.15-146.06,261.29-139.79 M274.09-173.39c-7.7-13.34-24.76-17.91-38.09-10.21
		c-13.34,7.7-17.91,24.76-10.21,38.09c7.7,13.34,24.75,17.91,38.09,10.21C277.22-143,281.79-160.05,274.09-173.39 M269.6,170.8
		c-6.27,10.85-20.15,14.57-31,8.31c-10.86-6.27-14.57-20.15-8.31-31c6.27-10.85,20.15-14.57,31-8.31
		C272.15,146.06,275.87,159.94,269.6,170.8 M274.09,173.39c7.7-13.34,3.13-30.39-10.21-38.09c-13.34-7.7-30.39-3.13-38.09,10.21
		c-7.7,13.34-3.13,30.39,10.21,38.09C249.34,191.3,266.39,186.73,274.09,173.39 M364.7-184.11c0,12.53-10.16,22.7-22.7,22.7
		c-12.53,0-22.7-10.16-22.7-22.7c0-12.54,10.16-22.7,22.7-22.7C354.53-206.81,364.7-196.65,364.7-184.11 M369.89-184.11
		c0-15.4-12.49-27.89-27.89-27.89c-15.4,0-27.89,12.48-27.89,27.89c0,15.4,12.48,27.89,27.89,27.89
		C357.4-156.23,369.89-168.71,369.89-184.11 M364.7,184.11c0,12.53-10.16,22.7-22.7,22.7c-12.54,0-22.7-10.16-22.7-22.7
		c0-12.54,10.16-22.7,22.7-22.7C354.53,161.42,364.7,171.58,364.7,184.11 M369.89,184.11c0-15.4-12.49-27.89-27.89-27.89
		c-15.4,0-27.89,12.48-27.89,27.89c0,15.4,12.48,27.89,27.89,27.89C357.4,212,369.89,199.51,369.89,184.11 M453.71-148.1
		c-6.27,10.86-20.15,14.58-31,8.31c-10.86-6.27-14.57-20.15-8.31-31s20.15-14.57,31-8.31C456.26-172.83,459.98-158.95,453.71-148.1
		 M458.21-145.5c7.7-13.34,3.13-30.39-10.21-38.09c-13.34-7.7-30.39-3.13-38.09,10.21c-7.7,13.34-3.13,30.39,10.21,38.09
		C433.45-127.6,450.51-132.17,458.21-145.5 M445.4,179.1c-10.85,6.27-24.74,2.55-31-8.31c-6.27-10.86-2.55-24.74,8.31-31
		c10.86-6.27,24.74-2.55,31,8.31C459.98,158.95,456.26,172.84,445.4,179.1 M458.21,145.5c-7.7-13.34-24.75-17.91-38.09-10.21
		c-13.34,7.7-17.91,24.76-10.21,38.09c7.7,13.34,24.76,17.91,38.09,10.21C461.34,175.9,465.91,158.84,458.21,145.5 M512.82-72.34
		c-10.86,6.26-24.74,2.54-31-8.32c-6.26-10.86-2.54-24.74,8.32-31c10.86-6.26,24.74-2.54,31,8.32
		C527.4-92.48,523.68-78.6,512.82-72.34 M525.63-105.93c-7.7-13.34-24.75-17.92-38.09-10.22c-13.34,7.7-17.92,24.75-10.22,38.09
		c7.7,13.34,24.75,17.92,38.09,10.22C528.75-75.54,533.33-92.59,525.63-105.93 M548.81,0c0,12.54-10.16,22.7-22.7,22.7
		c-12.54,0-22.7-10.16-22.7-22.7c0-12.53,10.16-22.7,22.7-22.7C538.65-22.7,548.81-12.53,548.81,0 M554,0
		c0-15.4-12.49-27.88-27.89-27.88c-15.4,0-27.89,12.48-27.89,27.88c0,15.4,12.48,27.89,27.89,27.89C541.51,27.89,554,15.4,554,0"/>
	<path style="clip-path:url(#SVGID_00000079458881782756627830000000102835611102680454_);fill:#8BCBC8;" d="M492.1,86.59
		c-2.99,5.18-1.21,11.81,3.97,14.79c5.18,2.99,11.8,1.21,14.79-3.97c2.99-5.18,1.21-11.8-3.97-14.79
		C501.71,79.63,495.09,81.41,492.1,86.59 M172.49-8.42c-4.65-8.06-14.96-10.83-23.02-6.18c-8.06,4.65-10.83,14.96-6.18,23.02
		s14.96,10.83,23.02,6.18S177.14-0.36,172.49-8.42 M191.9-97.41c-2.99-5.18-9.61-6.96-14.79-3.97c-5.18,2.99-6.96,9.61-3.97,14.79
		c2.99,5.18,9.61,6.96,14.79,3.97C193.11-85.61,194.89-92.23,191.9-97.41 M191.9,86.59c-2.99-5.18-9.61-6.96-14.79-3.97
		c-5.18,2.99-6.96,9.61-3.97,14.79c2.99,5.18,9.61,6.96,14.79,3.97C193.11,98.39,194.89,91.77,191.9,86.59 M264.54-167.87
		c-4.65-8.06-14.96-10.83-23.02-6.18c-8.06,4.65-10.83,14.96-6.18,23.02c4.65,8.06,14.96,10.83,23.02,6.18
		C266.43-149.5,269.2-159.81,264.54-167.87 M264.54,151.02c-4.65-8.06-14.96-10.83-23.02-6.18c-8.06,4.65-10.83,14.96-6.18,23.02
		c4.65,8.06,14.96,10.83,23.02,6.18C266.43,169.4,269.2,159.09,264.54,151.02 M351.38-189.53c-2.99-5.18-9.61-6.96-14.79-3.97
		c-5.18,2.99-6.96,9.61-3.97,14.79c2.99,5.18,9.61,6.96,14.79,3.97C352.59-177.72,354.37-184.34,351.38-189.53 M351.38,178.7
		c-2.99-5.18-9.61-6.96-14.79-3.97c-5.18,2.99-6.96,9.61-3.97,14.79c2.99,5.18,9.61,6.96,14.79,3.97
		C352.59,190.51,354.37,183.88,351.38,178.7 M448.66-151.02c4.65-8.06,1.89-18.37-6.18-23.02c-8.06-4.65-18.37-1.89-23.02,6.18
		c-4.65,8.06-1.89,18.37,6.18,23.03C433.7-140.19,444.01-142.96,448.66-151.02 M448.66,167.87c4.65-8.06,1.89-18.37-6.18-23.02
		c-8.06-4.65-18.37-1.89-23.02,6.18c-4.65,8.06-1.89,18.37,6.18,23.03C433.7,178.7,444.01,175.93,448.66,167.87 M510.86-86.59
		c2.99-5.18,1.21-11.8-3.97-14.79c-5.18-2.99-11.8-1.21-14.79,3.97c-2.99,5.18-1.21,11.8,3.97,14.79
		C501.25-79.63,507.87-81.41,510.86-86.59 M534.54-14.6c-8.06-4.65-18.37-1.89-23.03,6.18c-4.65,8.06-1.88,18.37,6.18,23.02
		c8.06,4.65,18.37,1.89,23.02-6.18C545.37,0.36,542.6-9.95,534.54-14.6"/>
	<path style="clip-path:url(#SVGID_00000079458881782756627830000000102835611102680454_);fill:#8BCBC8;" d="M438.6,1080
		c0,53.35-43.25,96.6-96.6,96.6c-53.35,0-96.6-43.25-96.6-96.6c0-53.35,43.25-96.6,96.6-96.6C395.35,983.4,438.6,1026.65,438.6,1080
		 M460.69,1080c0-65.55-53.14-118.69-118.69-118.69c-65.55,0-118.69,53.14-118.69,118.69s53.14,118.69,118.69,118.69
		C407.55,1198.69,460.69,1145.55,460.69,1080"/>
	<path style="clip-path:url(#SVGID_00000079458881782756627830000000102835611102680454_);fill:#8BCBC8;" d="M481.82,1160.66
		c6.26-10.86,20.14-14.58,31-8.32c10.86,6.26,14.58,20.14,8.32,31c-6.26,10.86-20.14,14.58-31,8.32
		C479.28,1185.4,475.56,1171.52,481.82,1160.66 M477.33,1158.07c-7.7,13.34-3.12,30.39,10.22,38.09
		c13.34,7.69,30.39,3.12,38.09-10.22c7.7-13.34,3.12-30.39-10.22-38.09C502.07,1140.15,485.02,1144.73,477.33,1158.07
		 M157.89,1057.3c12.54,0,22.7,10.16,22.7,22.7s-10.16,22.7-22.7,22.7s-22.7-10.16-22.7-22.7
		C135.19,1067.47,145.35,1057.3,157.89,1057.3 M157.89,1052.11c-15.4,0-27.89,12.48-27.89,27.89c0,15.4,12.49,27.89,27.89,27.89
		c15.4,0,27.89-12.48,27.89-27.89C185.77,1064.6,173.29,1052.11,157.89,1052.11 M202.18,999.34c-6.26,10.86-20.14,14.58-31,8.32
		c-10.86-6.26-14.58-20.14-8.32-31c6.26-10.86,20.14-14.58,31-8.32C204.72,974.6,208.44,988.48,202.18,999.34 M206.68,1001.93
		c7.7-13.34,3.12-30.39-10.22-38.09c-13.34-7.7-30.39-3.12-38.09,10.22c-7.7,13.34-3.12,30.39,10.22,38.09
		C181.93,1019.85,198.98,1015.27,206.68,1001.93 M193.86,1191.66c-10.86,6.26-24.74,2.54-31-8.32c-6.26-10.86-2.54-24.74,8.32-31
		c10.86-6.26,24.74-2.54,31,8.32C208.44,1171.52,204.72,1185.4,193.86,1191.66 M206.68,1158.07c-7.7-13.34-24.75-17.92-38.09-10.22
		c-13.34,7.69-17.92,24.75-10.22,38.09c7.7,13.34,24.75,17.92,38.09,10.22S214.37,1171.41,206.68,1158.07 M261.29,940.21
		c-10.86,6.27-24.74,2.55-31-8.31c-6.27-10.85-2.55-24.74,8.31-31c10.86-6.27,24.74-2.55,31,8.31
		C275.87,920.06,272.15,933.94,261.29,940.21 M274.09,906.61c-7.7-13.34-24.75-17.91-38.09-10.21
		c-13.34,7.7-17.91,24.76-10.21,38.09c7.7,13.34,24.75,17.91,38.09,10.21C277.22,937,281.79,919.95,274.09,906.61 M269.6,1250.79
		c-6.27,10.85-20.15,14.57-31,8.31c-10.85-6.27-14.57-20.15-8.31-31c6.27-10.85,20.15-14.57,31-8.31
		C272.15,1226.06,275.87,1239.94,269.6,1250.79 M274.09,1253.39c7.7-13.34,3.13-30.39-10.21-38.09
		c-13.34-7.7-30.39-3.13-38.09,10.21c-7.7,13.34-3.13,30.39,10.21,38.09C249.34,1271.3,266.39,1266.73,274.09,1253.39 M364.7,895.89
		c0,12.53-10.16,22.7-22.7,22.7c-12.54,0-22.7-10.16-22.7-22.7c0-12.53,10.16-22.7,22.7-22.7
		C354.53,873.19,364.7,883.35,364.7,895.89 M369.89,895.89c0-15.4-12.49-27.89-27.89-27.89c-15.4,0-27.89,12.48-27.89,27.89
		c0,15.4,12.48,27.89,27.89,27.89C357.4,923.77,369.89,911.29,369.89,895.89 M364.7,1264.11c0,12.54-10.16,22.7-22.7,22.7
		c-12.54,0-22.7-10.16-22.7-22.7c0-12.54,10.16-22.7,22.7-22.7C354.53,1241.42,364.7,1251.58,364.7,1264.11 M369.89,1264.11
		c0-15.4-12.49-27.89-27.89-27.89c-15.4,0-27.89,12.48-27.89,27.89c0,15.4,12.48,27.89,27.89,27.89
		C357.4,1292,369.89,1279.51,369.89,1264.11 M453.71,931.9c-6.27,10.86-20.15,14.58-31,8.31c-10.86-6.27-14.57-20.15-8.31-31
		c6.27-10.85,20.15-14.57,31-8.31C456.26,907.16,459.98,921.05,453.71,931.9 M458.21,934.5c7.7-13.34,3.13-30.39-10.21-38.09
		c-13.34-7.7-30.39-3.13-38.09,10.21c-7.7,13.34-3.13,30.39,10.21,38.09C433.45,952.4,450.51,947.83,458.21,934.5 M445.4,1259.1
		c-10.85,6.27-24.74,2.55-31-8.31c-6.27-10.86-2.55-24.74,8.31-31c10.86-6.27,24.74-2.55,31,8.31
		C459.98,1238.95,456.26,1252.83,445.4,1259.1 M458.21,1225.5c-7.7-13.34-24.75-17.91-38.09-10.21
		c-13.34,7.7-17.91,24.76-10.21,38.09c7.7,13.34,24.76,17.91,38.09,10.21C461.34,1255.9,465.91,1238.84,458.21,1225.5
		 M512.82,1007.66c-10.86,6.26-24.74,2.54-31-8.32c-6.26-10.86-2.54-24.74,8.32-31c10.86-6.26,24.74-2.54,31,8.32
		C527.4,987.52,523.68,1001.39,512.82,1007.66 M525.63,974.06c-7.7-13.34-24.75-17.91-38.09-10.22
		c-13.34,7.7-17.92,24.75-10.22,38.09c7.7,13.34,24.75,17.92,38.09,10.22C528.75,1004.46,533.33,987.4,525.63,974.06 M548.81,1080
		c0,12.54-10.16,22.7-22.7,22.7c-12.54,0-22.7-10.16-22.7-22.7s10.16-22.7,22.7-22.7C538.65,1057.3,548.81,1067.46,548.81,1080
		 M554,1080c0-15.4-12.49-27.89-27.89-27.89c-15.4,0-27.89,12.48-27.89,27.89s12.48,27.89,27.89,27.89
		C541.51,1107.88,554,1095.4,554,1080"/>
	<path style="clip-path:url(#SVGID_00000079458881782756627830000000102835611102680454_);fill:#8BCBC8;" d="M492.1,1166.59
		c-2.99,5.18-1.21,11.8,3.97,14.79c5.18,2.99,11.8,1.21,14.79-3.97c2.99-5.18,1.21-11.81-3.97-14.79
		C501.71,1159.63,495.09,1161.41,492.1,1166.59 M172.49,1071.58c-4.65-8.06-14.96-10.83-23.02-6.18s-10.83,14.96-6.18,23.02
		c4.65,8.06,14.96,10.83,23.02,6.18S177.14,1079.64,172.49,1071.58 M191.9,982.59c-2.99-5.18-9.61-6.96-14.79-3.97
		c-5.18,2.99-6.96,9.61-3.97,14.79c2.99,5.18,9.61,6.96,14.79,3.97C193.11,994.39,194.89,987.77,191.9,982.59 M191.9,1166.59
		c-2.99-5.18-9.61-6.96-14.79-3.97c-5.18,2.99-6.96,9.61-3.97,14.79c2.99,5.18,9.61,6.96,14.79,3.97
		C193.11,1178.39,194.89,1171.77,191.9,1166.59 M264.54,912.13c-4.65-8.06-14.96-10.83-23.02-6.18
		c-8.06,4.65-10.83,14.96-6.18,23.02c4.65,8.06,14.96,10.83,23.02,6.18C266.43,930.5,269.2,920.19,264.54,912.13 M264.54,1231.02
		c-4.65-8.06-14.96-10.83-23.02-6.18c-8.06,4.65-10.83,14.96-6.18,23.03c4.65,8.06,14.96,10.83,23.02,6.18
		C266.43,1249.4,269.2,1239.09,264.54,1231.02 M351.38,890.47c-2.99-5.18-9.61-6.96-14.79-3.97c-5.18,2.99-6.96,9.61-3.97,14.79
		c2.99,5.18,9.61,6.96,14.79,3.97C352.59,902.28,354.37,895.66,351.38,890.47 M351.38,1258.7c-2.99-5.18-9.61-6.96-14.79-3.97
		c-5.18,2.99-6.96,9.61-3.97,14.79c2.99,5.18,9.61,6.96,14.79,3.97C352.59,1270.51,354.37,1263.88,351.38,1258.7 M448.66,928.98
		c4.65-8.06,1.89-18.37-6.18-23.02c-8.06-4.65-18.37-1.89-23.02,6.18c-4.65,8.06-1.89,18.37,6.18,23.03
		C433.7,939.81,444.01,937.04,448.66,928.98 M448.66,1247.87c4.65-8.06,1.89-18.37-6.18-23.03s-18.37-1.89-23.02,6.18
		c-4.65,8.06-1.89,18.37,6.18,23.03S444.01,1255.93,448.66,1247.87 M510.86,993.41c2.99-5.18,1.21-11.8-3.97-14.79
		c-5.18-2.99-11.8-1.21-14.79,3.97c-2.99,5.18-1.21,11.8,3.97,14.79C501.25,1000.37,507.87,998.59,510.86,993.41 M534.54,1065.4
		c-8.06-4.65-18.37-1.89-23.03,6.18c-4.65,8.06-1.88,18.37,6.18,23.02c8.06,4.65,18.37,1.89,23.02-6.18
		C545.37,1080.36,542.6,1070.05,534.54,1065.4"/>
	<path style="clip-path:url(#SVGID_00000079458881782756627830000000102835611102680454_);fill:#8BCBC8;" d="M1674.6,0
		c0,53.35-43.25,96.6-96.6,96.6c-53.35,0-96.6-43.25-96.6-96.6c0-53.35,43.25-96.6,96.6-96.6C1631.35-96.6,1674.6-53.35,1674.6,0
		 M1696.69,0c0-65.55-53.14-118.69-118.69-118.69c-65.55,0-118.69,53.14-118.69,118.69c0,65.55,53.14,118.69,118.69,118.69
		C1643.55,118.69,1696.69,65.55,1696.69,0"/>
	<path style="clip-path:url(#SVGID_00000079458881782756627830000000102835611102680454_);fill:#8BCBC8;" d="M1717.82,80.66
		c6.26-10.86,20.14-14.58,31-8.32c10.86,6.26,14.58,20.14,8.32,31c-6.26,10.86-20.14,14.58-31,8.32
		C1715.28,105.4,1711.56,91.52,1717.82,80.66 M1713.33,78.07c-7.7,13.34-3.12,30.39,10.22,38.09c13.34,7.7,30.39,3.12,38.09-10.22
		c7.7-13.34,3.12-30.39-10.22-38.09C1738.07,60.15,1721.02,64.73,1713.33,78.07 M1393.89-22.7c12.54,0,22.7,10.16,22.7,22.7
		c0,12.54-10.16,22.7-22.7,22.7c-12.53,0-22.7-10.16-22.7-22.7C1371.19-12.53,1381.35-22.7,1393.89-22.7 M1393.89-27.88
		C1378.49-27.88,1366-15.4,1366,0c0,15.4,12.48,27.89,27.89,27.89c15.4,0,27.89-12.48,27.89-27.89
		C1421.77-15.4,1409.29-27.88,1393.89-27.88 M1438.18-80.66c-6.26,10.86-20.14,14.58-31,8.32c-10.86-6.26-14.58-20.14-8.32-31
		c6.26-10.86,20.14-14.58,31-8.32C1440.72-105.4,1444.44-91.52,1438.18-80.66 M1442.68-78.07c7.69-13.34,3.12-30.39-10.22-38.09
		c-13.34-7.7-30.39-3.12-38.09,10.22c-7.69,13.34-3.12,30.39,10.22,38.09C1417.93-60.15,1434.98-64.73,1442.68-78.07
		 M1429.86,111.66c-10.86,6.26-24.74,2.54-31-8.32c-6.26-10.86-2.54-24.74,8.32-31c10.86-6.26,24.74-2.54,31,8.32
		C1444.44,91.52,1440.72,105.4,1429.86,111.66 M1442.68,78.07c-7.7-13.34-24.75-17.92-38.09-10.22
		c-13.34,7.7-17.92,24.75-10.22,38.09c7.7,13.34,24.75,17.92,38.09,10.22C1445.8,108.46,1450.37,91.41,1442.68,78.07
		 M1497.29-139.79c-10.86,6.27-24.74,2.55-31-8.31c-6.27-10.85-2.55-24.74,8.31-31c10.85-6.27,24.74-2.55,31,8.31
		S1508.15-146.06,1497.29-139.79 M1510.09-173.39c-7.7-13.34-24.76-17.91-38.09-10.21s-17.91,24.76-10.21,38.09
		c7.7,13.34,24.75,17.91,38.09,10.21C1513.22-143,1517.79-160.05,1510.09-173.39 M1505.6,170.8c-6.27,10.85-20.15,14.57-31,8.31
		c-10.86-6.27-14.57-20.15-8.31-31c6.27-10.85,20.15-14.57,31-8.31C1508.15,146.06,1511.87,159.94,1505.6,170.8 M1510.09,173.39
		c7.7-13.34,3.13-30.39-10.21-38.09c-13.34-7.7-30.39-3.13-38.09,10.21c-7.7,13.34-3.13,30.39,10.21,38.09
		S1502.39,186.73,1510.09,173.39 M1600.7-184.11c0,12.53-10.16,22.7-22.7,22.7c-12.53,0-22.7-10.16-22.7-22.7
		c0-12.54,10.16-22.7,22.7-22.7C1590.53-206.81,1600.7-196.65,1600.7-184.11 M1605.89-184.11c0-15.4-12.48-27.89-27.89-27.89
		c-15.4,0-27.89,12.48-27.89,27.89c0,15.4,12.48,27.89,27.89,27.89C1593.4-156.23,1605.89-168.71,1605.89-184.11 M1600.7,184.11
		c0,12.53-10.16,22.7-22.7,22.7c-12.53,0-22.7-10.16-22.7-22.7c0-12.54,10.16-22.7,22.7-22.7
		C1590.53,161.42,1600.7,171.58,1600.7,184.11 M1605.89,184.11c0-15.4-12.48-27.89-27.89-27.89c-15.4,0-27.89,12.48-27.89,27.89
		c0,15.4,12.48,27.89,27.89,27.89C1593.4,212,1605.88,199.51,1605.89,184.11 M1689.71-148.1c-6.27,10.86-20.15,14.58-31,8.31
		c-10.85-6.27-14.58-20.15-8.31-31c6.27-10.85,20.15-14.57,31-8.31C1692.26-172.83,1695.98-158.95,1689.71-148.1 M1694.21-145.5
		c7.7-13.34,3.13-30.39-10.21-38.09c-13.34-7.7-30.39-3.13-38.09,10.21c-7.7,13.34-3.13,30.39,10.21,38.09
		C1669.45-127.6,1686.51-132.17,1694.21-145.5 M1681.4,179.1c-10.85,6.27-24.74,2.55-31-8.31c-6.27-10.86-2.55-24.74,8.31-31
		c10.85-6.27,24.74-2.55,31,8.31C1695.98,158.95,1692.26,172.84,1681.4,179.1 M1694.21,145.5c-7.7-13.34-24.75-17.91-38.09-10.21
		c-13.34,7.7-17.91,24.76-10.21,38.09c7.7,13.34,24.75,17.91,38.09,10.21C1697.34,175.9,1701.91,158.84,1694.21,145.5
		 M1748.82-72.34c-10.86,6.26-24.74,2.54-31-8.32c-6.26-10.86-2.54-24.74,8.32-31c10.86-6.26,24.74-2.54,31,8.32
		C1763.4-92.48,1759.68-78.6,1748.82-72.34 M1761.63-105.93c-7.7-13.34-24.75-17.92-38.09-10.22c-13.34,7.7-17.91,24.75-10.22,38.09
		c7.7,13.34,24.75,17.92,38.09,10.22C1764.75-75.54,1769.33-92.59,1761.63-105.93 M1784.81,0c0,12.54-10.16,22.7-22.7,22.7
		c-12.54,0-22.7-10.16-22.7-22.7c0-12.53,10.16-22.7,22.7-22.7C1774.65-22.7,1784.81-12.53,1784.81,0 M1790,0
		c0-15.4-12.49-27.88-27.89-27.88c-15.4,0-27.89,12.48-27.89,27.88c0,15.4,12.48,27.89,27.89,27.89C1777.51,27.89,1790,15.4,1790,0"
		/>
	<path style="clip-path:url(#SVGID_00000079458881782756627830000000102835611102680454_);fill:#8BCBC8;" d="M1728.1,86.59
		c-2.99,5.18-1.21,11.81,3.97,14.79c5.18,2.99,11.81,1.21,14.79-3.97c2.99-5.18,1.21-11.8-3.97-14.79
		C1737.71,79.63,1731.09,81.41,1728.1,86.59 M1408.49-8.42c-4.65-8.06-14.96-10.83-23.02-6.18c-8.06,4.65-10.83,14.96-6.18,23.02
		c4.65,8.06,14.96,10.83,23.02,6.18S1413.14-0.36,1408.49-8.42 M1427.9-97.41c-2.99-5.18-9.61-6.96-14.79-3.97
		c-5.18,2.99-6.96,9.61-3.97,14.79c2.99,5.18,9.61,6.96,14.79,3.97C1429.11-85.61,1430.89-92.23,1427.9-97.41 M1427.9,86.59
		c-2.99-5.18-9.61-6.96-14.79-3.97c-5.18,2.99-6.96,9.61-3.97,14.79c2.99,5.18,9.61,6.96,14.79,3.97
		C1429.11,98.39,1430.89,91.77,1427.9,86.59 M1500.54-167.87c-4.65-8.06-14.96-10.83-23.03-6.18c-8.06,4.65-10.83,14.96-6.18,23.02
		c4.65,8.06,14.96,10.83,23.03,6.18C1502.43-149.5,1505.2-159.81,1500.54-167.87 M1500.54,151.02c-4.65-8.06-14.96-10.83-23.03-6.18
		c-8.06,4.65-10.83,14.96-6.18,23.02c4.65,8.06,14.96,10.83,23.03,6.18C1502.43,169.4,1505.2,159.09,1500.54,151.02 M1587.38-189.53
		c-2.99-5.18-9.61-6.96-14.79-3.97c-5.18,2.99-6.96,9.61-3.97,14.79s9.61,6.96,14.79,3.97
		C1588.59-177.72,1590.37-184.34,1587.38-189.53 M1587.38,178.7c-2.99-5.18-9.61-6.96-14.79-3.97c-5.18,2.99-6.96,9.61-3.97,14.79
		c2.99,5.18,9.61,6.96,14.79,3.97C1588.59,190.51,1590.37,183.88,1587.38,178.7 M1684.66-151.02c4.65-8.06,1.89-18.37-6.18-23.02
		c-8.06-4.65-18.37-1.89-23.02,6.18s-1.89,18.37,6.18,23.03C1669.7-140.19,1680.01-142.96,1684.66-151.02 M1684.66,167.87
		c4.65-8.06,1.89-18.37-6.18-23.02c-8.06-4.65-18.37-1.89-23.02,6.18s-1.89,18.37,6.18,23.03
		C1669.7,178.7,1680.01,175.93,1684.66,167.87 M1746.86-86.59c2.99-5.18,1.21-11.8-3.97-14.79c-5.18-2.99-11.81-1.21-14.79,3.97
		c-2.99,5.18-1.21,11.8,3.97,14.79C1737.25-79.63,1743.87-81.41,1746.86-86.59 M1770.54-14.6c-8.06-4.65-18.37-1.89-23.03,6.18
		c-4.65,8.06-1.89,18.37,6.18,23.02c8.06,4.65,18.37,1.89,23.03-6.18C1781.37,0.36,1778.6-9.95,1770.54-14.6"/>
	<path style="clip-path:url(#SVGID_00000079458881782756627830000000102835611102680454_);fill:#8BCBC8;" d="M1674.6,1080
		c0,53.35-43.25,96.6-96.6,96.6c-53.35,0-96.6-43.25-96.6-96.6c0-53.35,43.25-96.6,96.6-96.6
		C1631.35,983.4,1674.6,1026.65,1674.6,1080 M1696.69,1080c0-65.55-53.14-118.69-118.69-118.69c-65.55,0-118.69,53.14-118.69,118.69
		s53.14,118.69,118.69,118.69C1643.55,1198.69,1696.69,1145.55,1696.69,1080"/>
	<path style="clip-path:url(#SVGID_00000079458881782756627830000000102835611102680454_);fill:#8BCBC8;" d="M1717.82,1160.66
		c6.26-10.86,20.14-14.58,31-8.32c10.86,6.26,14.58,20.14,8.32,31c-6.26,10.86-20.14,14.58-31,8.32
		C1715.28,1185.4,1711.56,1171.52,1717.82,1160.66 M1713.33,1158.07c-7.7,13.34-3.12,30.39,10.22,38.09
		c13.34,7.69,30.39,3.12,38.09-10.22c7.7-13.34,3.12-30.39-10.22-38.09C1738.07,1140.15,1721.02,1144.73,1713.33,1158.07
		 M1393.89,1057.3c12.54,0,22.7,10.16,22.7,22.7s-10.16,22.7-22.7,22.7s-22.7-10.16-22.7-22.7
		C1371.19,1067.47,1381.35,1057.3,1393.89,1057.3 M1393.89,1052.11c-15.4,0-27.89,12.48-27.89,27.89c0,15.4,12.48,27.89,27.89,27.89
		c15.4,0,27.89-12.48,27.89-27.89C1421.77,1064.6,1409.29,1052.11,1393.89,1052.11 M1438.18,999.34c-6.26,10.86-20.14,14.58-31,8.32
		c-10.86-6.26-14.58-20.14-8.32-31c6.26-10.86,20.14-14.58,31-8.32C1440.72,974.6,1444.44,988.48,1438.18,999.34 M1442.68,1001.93
		c7.69-13.34,3.12-30.39-10.22-38.09c-13.34-7.7-30.39-3.12-38.09,10.22c-7.69,13.34-3.12,30.39,10.22,38.09
		C1417.93,1019.85,1434.98,1015.27,1442.68,1001.93 M1429.86,1191.66c-10.86,6.26-24.74,2.54-31-8.32
		c-6.26-10.86-2.54-24.74,8.32-31c10.86-6.26,24.74-2.54,31,8.32C1444.44,1171.52,1440.72,1185.4,1429.86,1191.66 M1442.68,1158.07
		c-7.7-13.34-24.75-17.92-38.09-10.22c-13.34,7.69-17.92,24.75-10.22,38.09c7.7,13.34,24.75,17.92,38.09,10.22
		C1445.8,1188.46,1450.37,1171.41,1442.68,1158.07 M1497.29,940.21c-10.86,6.27-24.74,2.55-31-8.31c-6.27-10.85-2.55-24.74,8.31-31
		c10.85-6.27,24.74-2.55,31,8.31C1511.87,920.06,1508.15,933.94,1497.29,940.21 M1510.09,906.61c-7.7-13.34-24.76-17.91-38.09-10.21
		c-13.34,7.7-17.91,24.76-10.21,38.09c7.7,13.34,24.75,17.91,38.09,10.21C1513.22,937,1517.79,919.95,1510.09,906.61
		 M1505.6,1250.79c-6.27,10.85-20.15,14.57-31,8.31c-10.86-6.27-14.57-20.15-8.31-31c6.27-10.85,20.15-14.57,31-8.31
		C1508.15,1226.06,1511.87,1239.94,1505.6,1250.79 M1510.09,1253.39c7.7-13.34,3.13-30.39-10.21-38.09
		c-13.34-7.7-30.39-3.13-38.09,10.21c-7.7,13.34-3.13,30.39,10.21,38.09C1485.34,1271.3,1502.39,1266.73,1510.09,1253.39
		 M1600.7,895.89c0,12.53-10.16,22.7-22.7,22.7c-12.53,0-22.7-10.16-22.7-22.7c0-12.53,10.16-22.7,22.7-22.7
		C1590.53,873.19,1600.7,883.35,1600.7,895.89 M1605.89,895.89c0-15.4-12.48-27.89-27.89-27.89c-15.4,0-27.89,12.48-27.89,27.89
		c0,15.4,12.48,27.89,27.89,27.89C1593.4,923.77,1605.88,911.29,1605.89,895.89 M1600.7,1264.11c0,12.54-10.16,22.7-22.7,22.7
		c-12.53,0-22.7-10.16-22.7-22.7s10.16-22.7,22.7-22.7C1590.53,1241.42,1600.7,1251.58,1600.7,1264.11 M1605.88,1264.11
		c0-15.4-12.48-27.89-27.89-27.89c-15.4,0-27.89,12.48-27.89,27.89c0,15.4,12.48,27.89,27.89,27.89
		C1593.4,1292,1605.88,1279.51,1605.88,1264.11 M1689.71,931.9c-6.27,10.86-20.15,14.58-31,8.31c-10.85-6.27-14.58-20.15-8.31-31
		c6.27-10.85,20.15-14.57,31-8.31C1692.26,907.16,1695.98,921.05,1689.71,931.9 M1694.21,934.5c7.7-13.34,3.13-30.39-10.21-38.09
		c-13.34-7.7-30.39-3.13-38.09,10.21c-7.7,13.34-3.13,30.39,10.21,38.09C1669.45,952.4,1686.51,947.83,1694.21,934.5 M1681.4,1259.1
		c-10.85,6.27-24.74,2.55-31-8.31c-6.27-10.86-2.55-24.74,8.31-31c10.85-6.27,24.74-2.55,31,8.31
		C1695.98,1238.95,1692.26,1252.83,1681.4,1259.1 M1694.21,1225.5c-7.7-13.34-24.75-17.91-38.09-10.21
		c-13.34,7.7-17.91,24.76-10.21,38.09s24.76,17.91,38.09,10.21C1697.34,1255.9,1701.91,1238.84,1694.21,1225.5 M1748.82,1007.66
		c-10.86,6.26-24.74,2.54-31-8.32c-6.26-10.86-2.54-24.74,8.32-31c10.86-6.26,24.74-2.54,31,8.32
		C1763.4,987.52,1759.68,1001.39,1748.82,1007.66 M1761.63,974.06c-7.69-13.34-24.75-17.91-38.09-10.22
		c-13.34,7.7-17.91,24.75-10.22,38.09c7.7,13.34,24.75,17.92,38.09,10.22C1764.75,1004.46,1769.33,987.4,1761.63,974.06
		 M1784.81,1080c0,12.54-10.16,22.7-22.7,22.7c-12.54,0-22.7-10.16-22.7-22.7c0-12.53,10.16-22.7,22.7-22.7
		C1774.65,1057.3,1784.81,1067.47,1784.81,1080 M1790,1080c0-15.4-12.49-27.89-27.89-27.89c-15.4,0-27.89,12.48-27.89,27.89
		s12.48,27.89,27.89,27.89C1777.51,1107.88,1790,1095.4,1790,1080"/>
	<path style="clip-path:url(#SVGID_00000079458881782756627830000000102835611102680454_);fill:#8BCBC8;" d="M1728.1,1166.59
		c-2.99,5.18-1.21,11.8,3.97,14.79c5.18,2.99,11.81,1.21,14.79-3.97s1.21-11.81-3.97-14.79
		C1737.71,1159.63,1731.09,1161.41,1728.1,1166.59 M1408.49,1071.58c-4.65-8.06-14.96-10.83-23.02-6.18
		c-8.06,4.65-10.83,14.96-6.18,23.02c4.65,8.06,14.96,10.83,23.02,6.18S1413.14,1079.64,1408.49,1071.58 M1427.9,982.59
		c-2.99-5.18-9.61-6.96-14.79-3.97c-5.18,2.99-6.96,9.61-3.97,14.79c2.99,5.18,9.61,6.96,14.79,3.97
		C1429.11,994.39,1430.89,987.77,1427.9,982.59 M1427.9,1166.59c-2.99-5.18-9.61-6.96-14.79-3.97c-5.18,2.99-6.96,9.61-3.97,14.79
		c2.99,5.18,9.61,6.96,14.79,3.97C1429.11,1178.39,1430.89,1171.77,1427.9,1166.59 M1500.54,912.13
		c-4.65-8.06-14.96-10.83-23.03-6.18c-8.06,4.65-10.83,14.96-6.18,23.02c4.65,8.06,14.96,10.83,23.03,6.18
		C1502.43,930.5,1505.2,920.19,1500.54,912.13 M1500.54,1231.02c-4.65-8.06-14.96-10.83-23.03-6.18
		c-8.06,4.65-10.83,14.96-6.18,23.02c4.65,8.06,14.96,10.83,23.03,6.18S1505.2,1239.09,1500.54,1231.02 M1587.38,890.47
		c-2.99-5.18-9.61-6.96-14.79-3.97c-5.18,2.99-6.96,9.61-3.97,14.79s9.61,6.96,14.79,3.97
		C1588.59,902.28,1590.37,895.66,1587.38,890.47 M1587.38,1258.7c-2.99-5.18-9.61-6.96-14.79-3.97c-5.18,2.99-6.96,9.61-3.97,14.79
		c2.99,5.18,9.61,6.96,14.79,3.97C1588.59,1270.51,1590.37,1263.88,1587.38,1258.7 M1684.66,928.98c4.65-8.06,1.89-18.37-6.18-23.02
		c-8.06-4.65-18.37-1.89-23.02,6.18c-4.65,8.06-1.89,18.37,6.18,23.03C1669.7,939.81,1680.01,937.04,1684.66,928.98
		 M1684.66,1247.87c4.65-8.06,1.89-18.37-6.18-23.03c-8.06-4.65-18.37-1.89-23.02,6.18c-4.65,8.06-1.89,18.37,6.18,23.02
		S1680.01,1255.93,1684.66,1247.87 M1746.86,993.41c2.99-5.18,1.21-11.8-3.97-14.79c-5.18-2.99-11.8-1.21-14.79,3.97
		c-2.99,5.18-1.21,11.8,3.97,14.79C1737.25,1000.37,1743.87,998.59,1746.86,993.41 M1770.54,1065.4
		c-8.06-4.65-18.37-1.89-23.03,6.18c-4.65,8.06-1.89,18.37,6.18,23.02c8.06,4.65,18.37,1.89,23.02-6.18
		C1781.37,1080.36,1778.6,1070.05,1770.54,1065.4"/>
</g>
<g>
	<defs>
		<rect id="SVGID_00000152228180346328797340000011043107175573580712_" width="1920" height="1080"/>
	</defs>
	<clipPath id="SVGID_00000152259562606973580500000006438409980798955449_">
		<use xlink:href="#SVGID_00000152228180346328797340000011043107175573580712_"  style="overflow:visible;"/>
	</clipPath>
	<path style="clip-path:url(#SVGID_00000152259562606973580500000006438409980798955449_);fill:#8BCBC8;" d="M438.6,540.23
		c0,53.35-43.25,96.6-96.6,96.6c-53.35,0-96.6-43.25-96.6-96.6c0-53.35,43.25-96.6,96.6-96.6
		C395.35,443.63,438.6,486.88,438.6,540.23 M460.69,540.23c0-65.55-53.14-118.69-118.69-118.69c-65.55,0-118.69,53.14-118.69,118.69
		S276.45,658.92,342,658.92C407.55,658.92,460.69,605.78,460.69,540.23"/>
	<path style="clip-path:url(#SVGID_00000152259562606973580500000006438409980798955449_);fill:#8BCBC8;" d="M481.82,620.89
		c6.26-10.86,20.14-14.58,31-8.32c10.86,6.26,14.58,20.14,8.32,31c-6.26,10.86-20.14,14.58-31,8.32
		C479.28,645.63,475.56,631.75,481.82,620.89 M477.33,618.3c-7.7,13.34-3.12,30.39,10.22,38.09c13.34,7.69,30.39,3.12,38.09-10.22
		c7.7-13.34,3.12-30.39-10.22-38.09C502.07,600.38,485.02,604.96,477.33,618.3 M157.89,517.53c12.54,0,22.7,10.16,22.7,22.7
		c0,12.54-10.16,22.7-22.7,22.7c-12.53,0-22.7-10.16-22.7-22.7C135.19,527.7,145.35,517.53,157.89,517.53 M157.89,512.34
		c-15.4,0-27.89,12.48-27.89,27.88c0,15.4,12.49,27.89,27.89,27.89c15.4,0,27.89-12.48,27.89-27.89
		C185.77,524.83,173.29,512.34,157.89,512.34 M202.18,459.57c-6.26,10.86-20.14,14.58-31,8.32c-10.86-6.26-14.58-20.14-8.32-31
		c6.26-10.86,20.14-14.58,31-8.32C204.72,434.83,208.44,448.71,202.18,459.57 M206.68,462.16c7.7-13.34,3.12-30.39-10.22-38.09
		c-13.34-7.7-30.39-3.12-38.09,10.22c-7.7,13.34-3.12,30.39,10.22,38.09C181.93,480.08,198.98,475.5,206.68,462.16 M193.86,651.89
		c-10.86,6.26-24.74,2.54-31-8.32c-6.26-10.86-2.54-24.74,8.32-31c10.86-6.26,24.74-2.54,31,8.32
		C208.44,631.75,204.72,645.63,193.86,651.89 M206.68,618.3c-7.7-13.34-24.75-17.92-38.09-10.22
		c-13.34,7.69-17.92,24.75-10.22,38.09c7.7,13.34,24.75,17.92,38.09,10.22C209.8,648.69,214.37,631.64,206.68,618.3 M261.29,400.44
		c-10.86,6.27-24.74,2.55-31-8.31c-6.27-10.85-2.55-24.74,8.31-31c10.86-6.27,24.74-2.55,31,8.31
		C275.87,380.29,272.15,394.17,261.29,400.44 M274.09,366.84c-7.7-13.34-24.75-17.91-38.09-10.21
		c-13.34,7.7-17.91,24.75-10.21,38.09c7.7,13.34,24.75,17.91,38.09,10.21C277.22,397.23,281.79,380.18,274.09,366.84 M269.6,711.02
		c-6.27,10.85-20.15,14.57-31,8.31c-10.85-6.27-14.57-20.15-8.31-31c6.27-10.85,20.15-14.57,31-8.31
		C272.15,686.29,275.87,700.17,269.6,711.02 M274.09,713.62c7.7-13.34,3.13-30.39-10.21-38.09c-13.34-7.7-30.39-3.13-38.09,10.21
		c-7.7,13.34-3.13,30.39,10.21,38.09C249.34,731.53,266.39,726.96,274.09,713.62 M364.7,356.12c0,12.53-10.16,22.7-22.7,22.7
		c-12.54,0-22.7-10.16-22.7-22.7c0-12.53,10.16-22.7,22.7-22.7C354.53,333.42,364.7,343.58,364.7,356.12 M369.89,356.12
		c0-15.4-12.49-27.89-27.89-27.89c-15.4,0-27.89,12.48-27.89,27.89c0,15.4,12.48,27.89,27.89,27.89
		C357.4,384,369.89,371.52,369.89,356.12 M364.7,724.34c0,12.53-10.16,22.7-22.7,22.7c-12.54,0-22.7-10.16-22.7-22.7
		c0-12.54,10.16-22.7,22.7-22.7C354.53,701.65,364.7,711.81,364.7,724.34 M369.89,724.34c0-15.4-12.49-27.89-27.89-27.89
		c-15.4,0-27.89,12.48-27.89,27.89c0,15.4,12.48,27.89,27.89,27.89C357.4,752.23,369.89,739.74,369.89,724.34 M453.71,392.13
		c-6.27,10.86-20.15,14.58-31,8.31c-10.86-6.27-14.57-20.15-8.31-31s20.15-14.57,31-8.31C456.26,367.39,459.98,381.28,453.71,392.13
		 M458.21,394.73c7.7-13.34,3.13-30.39-10.21-38.09c-13.34-7.7-30.39-3.13-38.09,10.21c-7.7,13.34-3.13,30.39,10.21,38.09
		C433.45,412.63,450.51,408.06,458.21,394.73 M445.4,719.33c-10.85,6.27-24.74,2.55-31-8.31c-6.27-10.86-2.55-24.74,8.31-31
		c10.86-6.27,24.74-2.55,31,8.31C459.98,699.18,456.26,713.06,445.4,719.33 M458.21,685.73c-7.7-13.34-24.75-17.91-38.09-10.21
		c-13.34,7.7-17.91,24.76-10.21,38.09c7.7,13.34,24.76,17.91,38.09,10.21C461.34,716.13,465.91,699.07,458.21,685.73 M512.82,467.89
		c-10.86,6.26-24.74,2.54-31-8.32c-6.26-10.86-2.54-24.74,8.32-31c10.86-6.26,24.74-2.54,31,8.32
		C527.4,447.75,523.68,461.62,512.82,467.89 M525.63,434.29c-7.7-13.34-24.75-17.91-38.09-10.22c-13.34,7.7-17.92,24.75-10.22,38.09
		c7.7,13.34,24.75,17.92,38.09,10.22C528.75,464.69,533.33,447.63,525.63,434.29 M548.81,540.23c0,12.54-10.16,22.7-22.7,22.7
		c-12.54,0-22.7-10.16-22.7-22.7c0-12.53,10.16-22.7,22.7-22.7C538.65,517.53,548.81,527.69,548.81,540.23 M554,540.23
		c0-15.4-12.49-27.88-27.89-27.88c-15.4,0-27.89,12.48-27.89,27.88c0,15.4,12.48,27.89,27.89,27.89S554,555.63,554,540.23"/>
	<path style="clip-path:url(#SVGID_00000152259562606973580500000006438409980798955449_);fill:#8BCBC8;" d="M492.1,626.82
		c-2.99,5.18-1.21,11.8,3.97,14.79c5.18,2.99,11.8,1.21,14.79-3.97c2.99-5.18,1.21-11.81-3.97-14.79
		C501.71,619.86,495.09,621.64,492.1,626.82 M172.49,531.81c-4.65-8.06-14.96-10.83-23.02-6.18c-8.06,4.65-10.83,14.96-6.18,23.02
		c4.65,8.06,14.96,10.83,23.02,6.18S177.14,539.87,172.49,531.81 M191.9,442.82c-2.99-5.18-9.61-6.96-14.79-3.97
		c-5.18,2.99-6.96,9.61-3.97,14.79c2.99,5.18,9.61,6.96,14.79,3.97C193.11,454.62,194.89,448,191.9,442.82 M191.9,626.82
		c-2.99-5.18-9.61-6.96-14.79-3.97c-5.18,2.99-6.96,9.61-3.97,14.79c2.99,5.18,9.61,6.96,14.79,3.97
		C193.11,638.62,194.89,632,191.9,626.82 M264.54,372.36c-4.65-8.06-14.96-10.83-23.02-6.18c-8.06,4.65-10.83,14.96-6.18,23.02
		c4.65,8.06,14.96,10.83,23.02,6.18C266.43,390.73,269.2,380.42,264.54,372.36 M264.54,691.25c-4.65-8.06-14.96-10.83-23.02-6.18
		c-8.06,4.65-10.83,14.96-6.18,23.02c4.65,8.06,14.96,10.83,23.02,6.18C266.43,709.63,269.2,699.32,264.54,691.25 M351.38,350.7
		c-2.99-5.18-9.61-6.96-14.79-3.97c-5.18,2.99-6.96,9.61-3.97,14.79c2.99,5.18,9.61,6.96,14.79,3.97
		C352.59,362.51,354.37,355.89,351.38,350.7 M351.38,718.93c-2.99-5.18-9.61-6.96-14.79-3.97c-5.18,2.99-6.96,9.61-3.97,14.79
		c2.99,5.18,9.61,6.96,14.79,3.97C352.59,730.74,354.37,724.11,351.38,718.93 M448.66,389.21c4.65-8.07,1.89-18.37-6.18-23.02
		c-8.06-4.65-18.37-1.89-23.02,6.18c-4.65,8.06-1.89,18.37,6.18,23.03C433.7,400.04,444.01,397.27,448.66,389.21 M448.66,708.1
		c4.65-8.06,1.89-18.37-6.18-23.02c-8.06-4.65-18.37-1.89-23.02,6.18c-4.65,8.06-1.89,18.37,6.18,23.02
		C433.7,718.93,444.01,716.16,448.66,708.1 M510.86,453.64c2.99-5.18,1.21-11.8-3.97-14.79c-5.18-2.99-11.8-1.21-14.79,3.97
		c-2.99,5.18-1.21,11.8,3.97,14.79C501.25,460.6,507.87,458.82,510.86,453.64 M534.54,525.63c-8.06-4.65-18.37-1.89-23.03,6.18
		c-4.65,8.06-1.88,18.37,6.18,23.02c8.06,4.65,18.37,1.89,23.02-6.18C545.37,540.59,542.6,530.28,534.54,525.63"/>
	<path style="clip-path:url(#SVGID_00000152259562606973580500000006438409980798955449_);fill:#8BCBC8;" d="M1674.6,540.23
		c0,53.35-43.25,96.6-96.6,96.6c-53.35,0-96.6-43.25-96.6-96.6c0-53.35,43.25-96.6,96.6-96.6
		C1631.35,443.63,1674.6,486.88,1674.6,540.23 M1696.69,540.23c0-65.55-53.14-118.69-118.69-118.69
		c-65.55,0-118.69,53.14-118.69,118.69s53.14,118.69,118.69,118.69C1643.55,658.92,1696.69,605.78,1696.69,540.23"/>
	<path style="clip-path:url(#SVGID_00000152259562606973580500000006438409980798955449_);fill:#8BCBC8;" d="M1717.82,620.89
		c6.26-10.86,20.14-14.58,31-8.32c10.86,6.26,14.58,20.14,8.32,31c-6.26,10.86-20.14,14.58-31,8.32
		C1715.28,645.63,1711.56,631.75,1717.82,620.89 M1713.33,618.3c-7.7,13.34-3.12,30.39,10.22,38.09
		c13.34,7.69,30.39,3.12,38.09-10.22c7.7-13.34,3.12-30.39-10.22-38.09C1738.07,600.38,1721.02,604.96,1713.33,618.3
		 M1393.89,517.53c12.54,0,22.7,10.16,22.7,22.7c0,12.54-10.16,22.7-22.7,22.7c-12.53,0-22.7-10.16-22.7-22.7
		C1371.19,527.7,1381.35,517.53,1393.89,517.53 M1393.89,512.34c-15.4,0-27.89,12.48-27.89,27.88c0,15.4,12.48,27.89,27.89,27.89
		s27.89-12.48,27.89-27.89C1421.77,524.83,1409.29,512.34,1393.89,512.34 M1438.18,459.57c-6.26,10.86-20.14,14.58-31,8.32
		c-10.86-6.26-14.58-20.14-8.32-31c6.26-10.86,20.14-14.58,31-8.32C1440.72,434.83,1444.44,448.71,1438.18,459.57 M1442.68,462.16
		c7.69-13.34,3.12-30.39-10.22-38.09c-13.34-7.7-30.39-3.12-38.09,10.22c-7.69,13.34-3.12,30.39,10.22,38.09
		C1417.93,480.08,1434.98,475.5,1442.68,462.16 M1429.86,651.89c-10.86,6.26-24.74,2.54-31-8.32c-6.26-10.86-2.54-24.74,8.32-31
		c10.86-6.26,24.74-2.54,31,8.32C1444.44,631.75,1440.72,645.63,1429.86,651.89 M1442.68,618.3c-7.7-13.34-24.75-17.92-38.09-10.22
		c-13.34,7.69-17.92,24.75-10.22,38.09c7.7,13.34,24.75,17.92,38.09,10.22C1445.8,648.69,1450.37,631.64,1442.68,618.3
		 M1497.29,400.44c-10.86,6.27-24.74,2.55-31-8.31c-6.27-10.85-2.55-24.74,8.31-31c10.85-6.27,24.74-2.55,31,8.31
		S1508.15,394.17,1497.29,400.44 M1510.09,366.84c-7.7-13.34-24.76-17.91-38.09-10.21c-13.34,7.7-17.91,24.75-10.21,38.09
		c7.7,13.34,24.75,17.91,38.09,10.21C1513.22,397.23,1517.79,380.18,1510.09,366.84 M1505.6,711.02c-6.27,10.85-20.15,14.57-31,8.31
		c-10.86-6.27-14.57-20.15-8.31-31c6.27-10.85,20.15-14.57,31-8.31C1508.15,686.29,1511.87,700.17,1505.6,711.02 M1510.09,713.62
		c7.7-13.34,3.13-30.39-10.21-38.09c-13.34-7.7-30.39-3.13-38.09,10.21c-7.7,13.34-3.13,30.39,10.21,38.09
		S1502.39,726.96,1510.09,713.62 M1600.7,356.12c0,12.53-10.16,22.7-22.7,22.7c-12.53,0-22.7-10.16-22.7-22.7
		c0-12.53,10.16-22.7,22.7-22.7C1590.53,333.42,1600.7,343.58,1600.7,356.12 M1605.89,356.12c0-15.4-12.48-27.89-27.89-27.89
		c-15.4,0-27.89,12.48-27.89,27.89c0,15.4,12.48,27.89,27.89,27.89C1593.4,384,1605.89,371.52,1605.89,356.12 M1600.7,724.34
		c0,12.53-10.16,22.7-22.7,22.7c-12.53,0-22.7-10.16-22.7-22.7c0-12.54,10.16-22.7,22.7-22.7
		C1590.53,701.65,1600.7,711.81,1600.7,724.34 M1605.88,724.34c0-15.4-12.48-27.89-27.89-27.89c-15.4,0-27.89,12.48-27.89,27.89
		c0,15.4,12.48,27.89,27.89,27.89C1593.4,752.23,1605.89,739.74,1605.88,724.34 M1689.71,392.13c-6.27,10.86-20.15,14.58-31,8.31
		c-10.85-6.27-14.58-20.15-8.31-31c6.27-10.85,20.15-14.57,31-8.31C1692.26,367.39,1695.98,381.28,1689.71,392.13 M1694.21,394.73
		c7.7-13.34,3.13-30.39-10.21-38.09c-13.34-7.7-30.39-3.13-38.09,10.21c-7.7,13.34-3.13,30.39,10.21,38.09
		C1669.45,412.63,1686.51,408.06,1694.21,394.73 M1681.4,719.33c-10.85,6.27-24.74,2.55-31-8.31c-6.27-10.86-2.55-24.74,8.31-31
		c10.85-6.27,24.74-2.55,31,8.31C1695.98,699.18,1692.26,713.06,1681.4,719.33 M1694.21,685.73c-7.7-13.34-24.75-17.91-38.09-10.21
		c-13.34,7.7-17.91,24.76-10.21,38.09c7.7,13.34,24.76,17.91,38.09,10.21C1697.34,716.13,1701.91,699.07,1694.21,685.73
		 M1748.82,467.89c-10.86,6.26-24.74,2.54-31-8.32c-6.26-10.86-2.54-24.74,8.32-31c10.86-6.26,24.74-2.54,31,8.32
		C1763.4,447.75,1759.68,461.62,1748.82,467.89 M1761.63,434.29c-7.69-13.34-24.75-17.91-38.09-10.22
		c-13.34,7.7-17.91,24.75-10.22,38.09c7.7,13.34,24.75,17.92,38.09,10.22C1764.75,464.69,1769.33,447.63,1761.63,434.29
		 M1784.81,540.23c0,12.54-10.16,22.7-22.7,22.7c-12.54,0-22.7-10.16-22.7-22.7c0-12.53,10.16-22.7,22.7-22.7
		C1774.65,517.53,1784.81,527.69,1784.81,540.23 M1790,540.23c0-15.4-12.49-27.88-27.89-27.88c-15.4,0-27.89,12.48-27.89,27.88
		c0,15.4,12.48,27.89,27.89,27.89C1777.51,568.11,1790,555.63,1790,540.23"/>
	<path style="clip-path:url(#SVGID_00000152259562606973580500000006438409980798955449_);fill:#8BCBC8;" d="M1728.1,626.82
		c-2.99,5.18-1.21,11.8,3.97,14.79c5.18,2.99,11.81,1.21,14.79-3.97c2.99-5.18,1.21-11.81-3.97-14.79
		C1737.71,619.86,1731.09,621.64,1728.1,626.82 M1408.49,531.81c-4.65-8.06-14.96-10.83-23.02-6.18
		c-8.06,4.65-10.83,14.96-6.18,23.02c4.65,8.06,14.96,10.83,23.02,6.18S1413.14,539.87,1408.49,531.81 M1427.9,442.82
		c-2.99-5.18-9.61-6.96-14.79-3.97c-5.18,2.99-6.96,9.61-3.97,14.79c2.99,5.18,9.61,6.96,14.79,3.97
		C1429.11,454.62,1430.89,448,1427.9,442.82 M1427.9,626.82c-2.99-5.18-9.61-6.96-14.79-3.97c-5.18,2.99-6.96,9.61-3.97,14.79
		c2.99,5.18,9.61,6.96,14.79,3.97C1429.11,638.62,1430.89,632,1427.9,626.82 M1500.54,372.36c-4.65-8.06-14.96-10.83-23.03-6.18
		c-8.06,4.65-10.83,14.96-6.18,23.02c4.65,8.06,14.96,10.83,23.03,6.18C1502.43,390.73,1505.2,380.42,1500.54,372.36
		 M1500.54,691.25c-4.65-8.06-14.96-10.83-23.03-6.18c-8.06,4.65-10.83,14.96-6.18,23.02s14.96,10.83,23.03,6.18
		C1502.43,709.63,1505.2,699.32,1500.54,691.25 M1587.38,350.7c-2.99-5.18-9.61-6.96-14.79-3.97c-5.18,2.99-6.96,9.61-3.97,14.79
		c2.99,5.18,9.61,6.96,14.79,3.97C1588.59,362.51,1590.37,355.89,1587.38,350.7 M1587.38,718.93c-2.99-5.18-9.61-6.96-14.79-3.97
		c-5.18,2.99-6.96,9.61-3.97,14.79c2.99,5.18,9.61,6.96,14.79,3.97C1588.59,730.74,1590.37,724.11,1587.38,718.93 M1684.66,389.21
		c4.65-8.07,1.89-18.37-6.18-23.02c-8.06-4.65-18.37-1.89-23.02,6.18c-4.65,8.06-1.89,18.37,6.18,23.03
		C1669.7,400.04,1680.01,397.27,1684.66,389.21 M1684.66,708.1c4.65-8.06,1.89-18.37-6.18-23.02c-8.06-4.65-18.37-1.89-23.02,6.18
		c-4.65,8.06-1.89,18.37,6.18,23.03C1669.7,718.93,1680.01,716.16,1684.66,708.1 M1746.86,453.64c2.99-5.18,1.21-11.8-3.97-14.79
		c-5.18-2.99-11.8-1.21-14.79,3.97c-2.99,5.18-1.21,11.8,3.97,14.79C1737.25,460.6,1743.87,458.82,1746.86,453.64 M1770.54,525.63
		c-8.06-4.65-18.37-1.89-23.03,6.18c-4.65,8.06-1.89,18.37,6.18,23.02c8.06,4.65,18.37,1.89,23.02-6.18
		C1781.37,540.59,1778.6,530.28,1770.54,525.63"/>
	<path style="clip-path:url(#SVGID_00000152259562606973580500000006438409980798955449_);fill:#FFFFFF;" d="M1545.85,523.73
		c0-2.42,0.56-8.92,0.28-10.13c-0.28-1.39-6.97-6.41-9.39-8.67v30.92c0,0-4.65,5.69-5.3,6.62c-0.37,0.59-9.1,0.4-9.84,0.21
		c-2.18-0.65-7.8-6.2-7.99-5.76c-0.92,0.77-5.01,3.93-5.57,4.65c0,0,13.71,26.58,15.7,29.55c0.09,1.58,0,9.29,0.09,10.66
		c-0.18,1.14,1.86,7.74,2.42,10.06c1.17,2.33,16.16,6.38,16.16,6.38c1.96-0.44,13.51-3.73,17.84-4.92c4.28-1.18,13.99-0.6,17.43-0.9
		c3.21-0.29,15.75-4.37,21.33-5.95c6.51-4.92,27.59-28.9,31.13-33.29c4.84-6.01,11.9-8.43,13.76-12.7
		c1.86-4.28,3.16-10.78,4.09-15.61c0,0-6.11,0.16-7.07-0.31c0,0,0.09-20.54-0.46-23.33c-0.56-2.79-6.78-18.19-7.48-18.95
		c-0.55,0-21.14-0.07-21.65,0c-3.02,2.81-17.84,16.31-21.09,19.17c-2.37,2.07-2.31,8.05-7.79,9.91c-5.48,1.86-17.66-1.24-18.9-0.43
		c-1.57,1.02-12.11,12.8-12.74,12.8L1545.85,523.73z"/>
	<path style="clip-path:url(#SVGID_00000152259562606973580500000006438409980798955449_);fill:#FFFFFF;" d="M309.85,523.73
		c0-2.42,0.56-8.92,0.28-10.13c-0.28-1.39-6.97-6.41-9.39-8.67v30.92c0,0-4.65,5.69-5.3,6.62c-0.37,0.59-9.1,0.4-9.85,0.21
		c-2.18-0.65-7.8-6.2-7.99-5.76c-0.92,0.77-5.01,3.93-5.58,4.65c0,0,13.71,26.58,15.7,29.55c0.09,1.58,0,9.29,0.09,10.66
		c-0.18,1.14,1.86,7.74,2.42,10.06c1.17,2.33,16.16,6.38,16.16,6.38c1.96-0.44,13.51-3.73,17.84-4.92c4.28-1.18,13.99-0.6,17.43-0.9
		c3.21-0.29,15.75-4.37,21.33-5.95c6.51-4.92,27.59-28.9,31.13-33.29c4.84-6.01,11.9-8.43,13.76-12.7
		c1.86-4.28,3.16-10.78,4.09-15.61c0,0-6.11,0.16-7.07-0.31c0,0,0.09-20.54-0.46-23.33c-0.56-2.79-6.78-18.19-7.48-18.95
		c-0.55,0-21.14-0.07-21.65,0c-3.02,2.81-17.84,16.31-21.09,19.17c-2.37,2.07-2.31,8.05-7.79,9.91c-5.48,1.86-17.66-1.24-18.9-0.43
		c-1.57,1.02-12.11,12.8-12.74,12.8L309.85,523.73z"/>
</g>
</svg>
