<?xml version="1.0" encoding="utf-8"?>
<!-- Generator: Adobe Illustrator 27.9.6, SVG Export Plug-In . SVG Version: 9.03 Build 54986)  -->
<svg version="1.1" id="Layer_1" xmlns="http://www.w3.org/2000/svg" xmlns:xlink="http://www.w3.org/1999/xlink" x="0px" y="0px"
	 viewBox="0 0 1024 1024" style="enable-background:new 0 0 1024 1024;" xml:space="preserve">
<style type="text/css">
	.st0{fill:#2CB2CE;}
	.st1{clip-path:url(#SVGID_00000027596877248408332760000012669529799019476097_);fill:#FFFFFF;}
</style>
<rect class="st0" width="1024" height="1024"/>
<g>
	<defs>
		<rect id="SVGID_1_" width="1024" height="1024"/>
	</defs>
	<clipPath id="SVGID_00000010991711973361363250000010432009707874650771_">
		<use xlink:href="#SVGID_1_"  style="overflow:visible;"/>
	</clipPath>
	<path style="clip-path:url(#SVGID_00000010991711973361363250000010432009707874650771_);fill:#FFFFFF;" d="M668.52,512
		c0,86.45-70.08,156.52-156.52,156.52c-86.45,0-156.52-70.08-156.52-156.52c0-86.44,70.08-156.52,156.52-156.52
		S668.52,425.56,668.52,512 M704.31,512c0-106.21-86.1-192.31-192.31-192.31S319.69,405.79,319.69,512
		c0,106.21,86.1,192.31,192.31,192.31C618.21,704.31,704.31,618.21,704.31,512"/>
	<path style="clip-path:url(#SVGID_00000010991711973361363250000010432009707874650771_);fill:#FFFFFF;" d="M738.54,642.69
		c10.15-17.59,32.64-23.63,50.23-13.48c17.59,10.15,23.63,32.64,13.48,50.23c-10.15,17.59-32.64,23.62-50.23,13.48
		C734.43,682.77,728.4,660.28,738.54,642.69 M731.26,638.49c-12.47,21.61-5.06,49.24,16.56,61.71
		c21.61,12.47,49.24,5.06,61.71-16.56c12.47-21.61,5.06-49.24-16.56-61.71C771.36,609.46,743.73,616.87,731.26,638.49
		 M213.69,475.23c20.31,0,36.77,16.46,36.77,36.77c0,20.31-16.46,36.77-36.77,36.77c-20.31,0-36.77-16.46-36.77-36.77
		C176.91,491.69,193.38,475.23,213.69,475.23 M213.69,466.82c-24.95,0-45.18,20.23-45.18,45.18c0,24.95,20.23,45.18,45.18,45.18
		s45.18-20.23,45.18-45.18C258.87,487.05,238.64,466.82,213.69,466.82 M285.45,381.31c-10.15,17.59-32.64,23.63-50.23,13.48
		c-17.59-10.15-23.63-32.64-13.48-50.23c10.15-17.59,32.64-23.62,50.23-13.48C289.57,341.23,295.6,363.72,285.45,381.31
		 M292.74,385.51c12.47-21.61,5.05-49.24-16.56-61.71s-49.24-5.05-61.71,16.56c-12.47,21.62-5.05,49.24,16.56,61.71
		S280.27,407.12,292.74,385.51 M271.98,692.92c-17.59,10.15-40.08,4.11-50.23-13.48c-10.15-17.59-4.11-40.08,13.48-50.23
		c17.59-10.15,40.08-4.11,50.23,13.48C295.6,660.28,289.57,682.77,271.98,692.92 M292.74,638.49
		c-12.47-21.61-40.1-29.03-61.71-16.56s-29.03,40.1-16.56,61.71c12.47,21.61,40.1,29.03,61.71,16.56
		C297.79,687.73,305.21,660.1,292.74,638.49 M381.23,285.5c-17.59,10.15-40.08,4.13-50.23-13.46
		c-10.15-17.59-4.13-40.08,13.46-50.23c17.59-10.15,40.08-4.13,50.23,13.46C404.84,252.86,398.82,275.35,381.23,285.5
		 M401.97,231.06c-12.48-21.61-40.11-29.01-61.72-16.54c-21.61,12.48-29.01,40.11-16.54,61.72c12.48,21.61,40.11,29.01,61.72,16.54
		C407.04,280.31,414.45,252.67,401.97,231.06 M394.69,788.73c-10.15,17.59-32.65,23.61-50.23,13.46
		c-17.59-10.15-23.61-32.64-13.46-50.23c10.16-17.59,32.65-23.61,50.23-13.46C398.82,748.65,404.84,771.14,394.69,788.73
		 M401.97,792.94c12.48-21.61,5.07-49.24-16.54-61.72c-21.61-12.48-49.24-5.07-61.72,16.54c-12.48,21.61-5.07,49.24,16.54,61.72
		C361.86,821.95,389.49,814.55,401.97,792.94 M548.77,213.69c0,20.31-16.46,36.77-36.77,36.77c-20.31,0-36.77-16.46-36.77-36.77
		c0-20.31,16.46-36.77,36.77-36.77C532.31,176.91,548.77,193.38,548.77,213.69 M557.18,213.69c0-24.95-20.23-45.18-45.18-45.18
		c-24.95,0-45.18,20.23-45.18,45.18s20.23,45.18,45.18,45.18C536.95,258.87,557.18,238.64,557.18,213.69 M548.77,810.31
		c0,20.31-16.46,36.77-36.77,36.77c-20.31,0-36.77-16.46-36.77-36.77c0-20.31,16.46-36.77,36.77-36.77
		C532.31,773.54,548.77,790,548.77,810.31 M557.18,810.31c0-24.95-20.23-45.18-45.18-45.18c-24.95,0-45.18,20.23-45.18,45.18
		s20.23,45.18,45.18,45.18C536.95,855.49,557.18,835.26,557.18,810.31 M693,272.04c-10.15,17.59-32.65,23.61-50.23,13.46
		c-17.59-10.16-23.62-32.65-13.46-50.23c10.15-17.59,32.65-23.61,50.23-13.46C697.13,231.96,703.16,254.45,693,272.04
		 M700.28,276.24c12.48-21.61,5.07-49.24-16.54-61.72c-21.61-12.48-49.24-5.07-61.72,16.54c-12.48,21.61-5.07,49.24,16.54,61.72
		C660.18,305.26,687.81,297.85,700.28,276.24 M679.54,802.19c-17.59,10.15-40.08,4.13-50.23-13.46
		c-10.16-17.59-4.13-40.08,13.46-50.23c17.59-10.15,40.08-4.13,50.23,13.46C703.16,769.55,697.13,792.04,679.54,802.19
		 M700.28,747.75c-12.48-21.61-40.11-29.01-61.72-16.54c-21.61,12.48-29.01,40.11-16.54,61.72c12.48,21.61,40.11,29.01,61.72,16.54
		C705.36,797,712.76,769.36,700.28,747.75 M788.77,394.79c-17.59,10.15-40.08,4.11-50.23-13.48c-10.15-17.59-4.11-40.08,13.48-50.23
		c17.59-10.15,40.08-4.11,50.23,13.48C812.4,362.15,806.37,384.64,788.77,394.79 M809.53,340.36
		c-12.47-21.61-40.1-29.03-61.71-16.56c-21.61,12.47-29.03,40.1-16.56,61.71c12.47,21.61,40.1,29.03,61.71,16.56
		C814.59,389.6,822,361.97,809.53,340.36 M847.09,512c0,20.31-16.46,36.77-36.77,36.77c-20.31,0-36.77-16.46-36.77-36.77
		c0-20.31,16.46-36.77,36.77-36.77C830.62,475.23,847.09,491.69,847.09,512 M855.49,512c0-24.95-20.23-45.18-45.18-45.18
		s-45.18,20.23-45.18,45.18c0,24.95,20.23,45.18,45.18,45.18S855.49,536.95,855.49,512"/>
	<path style="clip-path:url(#SVGID_00000010991711973361363250000010432009707874650771_);fill:#FFFFFF;" d="M755.2,652.3
		c-4.84,8.39-1.96,19.13,6.43,23.97c8.4,4.84,19.13,1.96,23.97-6.43c4.84-8.4,1.96-19.13-6.43-23.97
		C770.77,641.02,760.04,643.9,755.2,652.3 M237.35,498.35c-7.54-13.07-24.24-17.55-37.31-10.01c-13.07,7.54-17.55,24.24-10.01,37.3
		c7.54,13.07,24.24,17.55,37.31,10.01C240.4,528.12,244.88,511.42,237.35,498.35 M268.8,354.16c-4.84-8.4-15.57-11.27-23.97-6.43
		c-8.4,4.84-11.28,15.57-6.43,23.97c4.84,8.4,15.58,11.28,23.97,6.43C270.77,373.29,273.65,362.56,268.8,354.16 M268.8,652.3
		c-4.84-8.4-15.57-11.27-23.97-6.43s-11.28,15.57-6.43,23.97c4.84,8.4,15.57,11.27,23.97,6.43
		C270.77,671.42,273.65,660.69,268.8,652.3 M386.5,240.01c-7.54-13.07-24.24-17.55-37.31-10.01c-13.06,7.54-17.55,24.24-10.01,37.31
		c7.54,13.07,24.24,17.55,37.31,10.01C389.56,269.77,394.04,253.07,386.5,240.01 M386.5,756.7c-7.54-13.07-24.24-17.55-37.31-10.01
		c-13.06,7.54-17.55,24.24-10.01,37.31c7.54,13.07,24.24,17.55,37.31,10.01C389.56,786.47,394.04,769.76,386.5,756.7 M527.2,204.92
		c-4.84-8.39-15.57-11.27-23.97-6.43c-8.4,4.84-11.27,15.57-6.43,23.97c4.84,8.4,15.58,11.27,23.97,6.43
		C529.16,224.04,532.04,213.31,527.2,204.92 M527.2,801.54c-4.84-8.4-15.57-11.27-23.97-6.43c-8.4,4.84-11.27,15.58-6.43,23.97
		c4.84,8.39,15.58,11.27,23.97,6.43C529.16,820.67,532.04,809.94,527.2,801.54 M684.81,267.3c7.54-13.07,3.06-29.77-10.01-37.31
		c-13.07-7.54-29.77-3.06-37.31,10.01c-7.54,13.07-3.06,29.77,10.01,37.31C660.57,284.85,677.28,280.37,684.81,267.3 M684.81,783.99
		c7.54-13.07,3.06-29.77-10.01-37.31c-13.07-7.54-29.77-3.06-37.31,10.01c-7.54,13.07-3.06,29.77,10.01,37.31
		C660.57,801.54,677.28,797.06,684.81,783.99 M785.6,371.7c4.84-8.4,1.96-19.13-6.43-23.97c-8.4-4.84-19.13-1.96-23.97,6.43
		c-4.84,8.4-1.96,19.13,6.43,23.97C770.02,382.98,780.76,380.1,785.6,371.7 M823.96,488.34c-13.07-7.54-29.77-3.06-37.31,10.01
		c-7.54,13.07-3.06,29.77,10.01,37.3c13.07,7.54,29.77,3.06,37.31-10.01C841.51,512.58,837.03,495.88,823.96,488.34"/>
	<path style="clip-path:url(#SVGID_00000010991711973361363250000010432009707874650771_);fill:#FFFFFF;" d="M497.62,503.66
		c2.51,17.51,22.78,13.48,22.78,13.48c-4.34-1.55-12.58-6.94-8.01-17.71c5.84-13.74,32.52-6.86,24.22,19.42
		c-7.54,23.86-49.7,22.89-53.51-6.51c-4.34-33.51,28.9-46.73,28.9-46.73c-25.63,0-46.4,20.77-46.4,46.4
		c0,25.63,20.77,46.4,46.4,46.4c25.63,0,46.86-20.78,46.4-46.4C557.58,466.17,492.86,470.5,497.62,503.66"/>
	<path style="clip-path:url(#SVGID_00000010991711973361363250000010432009707874650771_);fill:#FFFFFF;" d="M512.3,402.18
		c0,0-16.22,24.37,0,48.85C512.3,451.03,527.17,431.5,512.3,402.18"/>
	<path style="clip-path:url(#SVGID_00000010991711973361363250000010432009707874650771_);fill:#FFFFFF;" d="M512.3,572.97
		c0,0-16.22,24.37,0,48.85C512.3,621.82,527.17,602.3,512.3,572.97"/>
	<path style="clip-path:url(#SVGID_00000010991711973361363250000010432009707874650771_);fill:#FFFFFF;" d="M402.18,511.7
		c0,0,24.37,16.22,48.85,0C451.03,511.7,431.5,496.83,402.18,511.7"/>
	<path style="clip-path:url(#SVGID_00000010991711973361363250000010432009707874650771_);fill:#FFFFFF;" d="M572.97,511.7
		c0,0,24.37,16.22,48.85,0C621.82,511.7,602.3,496.83,572.97,511.7"/>
	<path style="clip-path:url(#SVGID_00000010991711973361363250000010432009707874650771_);fill:#FFFFFF;" d="M416.27,565.82
		c0,0,29.2,2.11,42.52-24.06C458.78,541.76,434.47,538.43,416.27,565.82"/>
	<path style="clip-path:url(#SVGID_00000010991711973361363250000010432009707874650771_);fill:#FFFFFF;" d="M564.92,481.71
		c0,0,29.2,2.12,42.52-24.05C607.44,457.66,583.12,454.33,564.92,481.71"/>
	<path style="clip-path:url(#SVGID_00000010991711973361363250000010432009707874650771_);fill:#FFFFFF;" d="M455.31,605.87
		c0,0,26.46-12.54,25.16-41.87C480.47,564,457.66,573.07,455.31,605.87"/>
	<path style="clip-path:url(#SVGID_00000010991711973361363250000010432009707874650771_);fill:#FFFFFF;" d="M543.28,459.47
		c0,0,26.46-12.54,25.16-41.87C568.44,417.59,545.63,426.67,543.28,459.47"/>
	<path style="clip-path:url(#SVGID_00000010991711973361363250000010432009707874650771_);fill:#FFFFFF;" d="M565.94,607.32
		c0,0,2.11-29.2-24.06-42.52C541.88,564.8,538.55,589.12,565.94,607.32"/>
	<path style="clip-path:url(#SVGID_00000010991711973361363250000010432009707874650771_);fill:#FFFFFF;" d="M481.83,458.66
		c0,0,2.11-29.2-24.06-42.52C457.78,416.15,454.45,440.46,481.83,458.66"/>
	<path style="clip-path:url(#SVGID_00000010991711973361363250000010432009707874650771_);fill:#FFFFFF;" d="M605.99,568.28
		c0,0-12.54-26.46-41.87-25.16C564.12,543.12,573.19,565.92,605.99,568.28"/>
	<path style="clip-path:url(#SVGID_00000010991711973361363250000010432009707874650771_);fill:#FFFFFF;" d="M459.59,480.31
		c0,0-12.54-26.46-41.87-25.16C417.71,455.15,426.79,477.95,459.59,480.31"/>
</g>
</svg>
