<?xml version="1.0" encoding="utf-8"?>
<!-- Generator: Adobe Illustrator 27.9.6, SVG Export Plug-In . SVG Version: 9.03 Build 54986)  -->
<svg version="1.1" id="Layer_1" xmlns="http://www.w3.org/2000/svg" xmlns:xlink="http://www.w3.org/1999/xlink" x="0px" y="0px"
	 viewBox="0 0 256 256" style="enable-background:new 0 0 256 256;" xml:space="preserve">
<style type="text/css">
	.st0{clip-path:url(#SVGID_00000182517348439177717610000015278532941930544057_);fill:#FFFFFF;}
</style>
<g>
	<defs>
		<rect id="SVGID_1_" width="256" height="256"/>
	</defs>
	<clipPath id="SVGID_00000120542568051673674420000014198137315559080327_">
		<use xlink:href="#SVGID_1_"  style="overflow:visible;"/>
	</clipPath>
	<path style="clip-path:url(#SVGID_00000120542568051673674420000014198137315559080327_);fill:#FFFFFF;" d="M181.86,128
		c0,29.74-24.11,53.86-53.86,53.86c-29.74,0-53.86-24.11-53.86-53.86c0-29.74,24.11-53.86,53.86-53.86
		C157.74,74.14,181.86,98.26,181.86,128 M194.17,128c0-36.54-29.63-66.17-66.17-66.17c-36.55,0-66.17,29.63-66.17,66.17
		c0,36.55,29.62,66.17,66.17,66.17C164.55,194.17,194.17,164.55,194.17,128"/>
	<path style="clip-path:url(#SVGID_00000120542568051673674420000014198137315559080327_);fill:#FFFFFF;" d="M205.95,172.97
		c3.49-6.05,11.23-8.13,17.28-4.64c6.05,3.49,8.13,11.23,4.64,17.28c-3.49,6.05-11.23,8.13-17.28,4.64
		C204.54,186.76,202.46,179.02,205.95,172.97 M203.45,171.52c-4.29,7.44-1.74,16.94,5.7,21.24c7.44,4.29,16.95,1.74,21.24-5.7
		c4.29-7.44,1.74-16.94-5.7-21.24C217.24,161.53,207.74,164.09,203.45,171.52 M25.35,115.35c6.99,0,12.65,5.67,12.65,12.65
		c0,6.99-5.67,12.65-12.65,12.65c-6.99,0-12.65-5.66-12.65-12.65C12.7,121.01,18.37,115.35,25.35,115.35 M25.35,112.45
		c-8.59,0-15.55,6.96-15.55,15.55c0,8.59,6.96,15.55,15.55,15.55S40.9,136.59,40.9,128C40.9,119.41,33.94,112.45,25.35,112.45
		 M50.05,83.03c-3.49,6.05-11.23,8.13-17.28,4.64c-6.05-3.49-8.13-11.23-4.64-17.28c3.49-6.05,11.23-8.13,17.28-4.64
		S53.54,76.98,50.05,83.03 M52.56,84.48c4.29-7.44,1.74-16.94-5.7-21.24c-7.44-4.29-16.95-1.74-21.24,5.7s-1.74,16.94,5.7,21.24
		C38.76,94.46,48.26,91.91,52.56,84.48 M45.41,190.25c-6.05,3.49-13.79,1.42-17.28-4.64c-3.49-6.05-1.42-13.79,4.64-17.28
		c6.05-3.49,13.79-1.42,17.28,4.64C53.54,179.02,51.46,186.76,45.41,190.25 M52.56,171.52c-4.29-7.44-13.8-9.99-21.24-5.7
		c-7.44,4.29-9.99,13.8-5.7,21.24c4.29,7.44,13.8,9.99,21.24,5.7C54.29,188.47,56.85,178.96,52.56,171.52 M83,50.06
		c-6.05,3.49-13.79,1.42-17.29-4.63s-1.42-13.79,4.63-17.28s13.79-1.42,17.29,4.63S89.06,46.57,83,50.06 M90.14,31.33
		c-4.29-7.44-13.8-9.98-21.24-5.69s-9.98,13.8-5.69,21.24s13.8,9.98,21.24,5.69S94.43,38.77,90.14,31.33 M87.64,223.22
		c-3.49,6.05-11.23,8.12-17.29,4.63c-6.05-3.49-8.12-11.23-4.63-17.28s11.23-8.13,17.29-4.63S91.13,217.17,87.64,223.22
		 M90.14,224.67c4.29-7.43,1.75-16.94-5.69-21.24s-16.94-1.75-21.24,5.69c-4.29,7.44-1.75,16.94,5.69,21.24
		S85.85,232.1,90.14,224.67 M140.65,25.35c0,6.99-5.66,12.65-12.65,12.65c-6.99,0-12.65-5.67-12.65-12.65
		c0-6.99,5.67-12.65,12.65-12.65C134.99,12.7,140.65,18.37,140.65,25.35 M143.55,25.35c0-8.59-6.96-15.55-15.55-15.55
		s-15.55,6.96-15.55,15.55c0,8.59,6.96,15.55,15.55,15.55S143.55,33.94,143.55,25.35 M140.65,230.64c0,6.99-5.66,12.65-12.65,12.65
		c-6.99,0-12.65-5.66-12.65-12.65s5.67-12.65,12.65-12.65C134.99,217.99,140.65,223.66,140.65,230.64 M143.55,230.64
		c0-8.59-6.96-15.55-15.55-15.55s-15.55,6.96-15.55,15.55s6.96,15.55,15.55,15.55C136.59,246.19,143.55,239.23,143.55,230.64
		 M190.28,45.43c-3.49,6.05-11.23,8.13-17.28,4.63s-8.13-11.23-4.63-17.29c3.49-6.05,11.23-8.12,17.29-4.63
		S193.77,39.38,190.28,45.43 M192.79,46.88c4.29-7.44,1.74-16.94-5.69-21.24c-7.43-4.29-16.94-1.74-21.24,5.69
		c-4.29,7.43-1.75,16.94,5.69,21.24C178.99,56.86,188.49,54.32,192.79,46.88 M185.65,227.85c-6.05,3.49-13.79,1.42-17.29-4.63
		c-3.49-6.05-1.42-13.79,4.63-17.29s13.79-1.42,17.28,4.63C193.77,216.62,191.7,224.36,185.65,227.85 M192.79,209.12
		c-4.29-7.44-13.8-9.98-21.24-5.69c-7.44,4.29-9.98,13.8-5.69,21.24c4.29,7.44,13.8,9.98,21.24,5.69
		C194.53,226.06,197.08,216.56,192.79,209.12 M223.23,87.67c-6.05,3.49-13.79,1.41-17.28-4.64s-1.42-13.79,4.64-17.28
		c6.05-3.49,13.79-1.41,17.28,4.64C231.36,76.44,229.29,84.18,223.23,87.67 M230.38,68.94c-4.29-7.44-13.8-9.99-21.24-5.7
		c-7.44,4.29-9.99,13.8-5.7,21.24c4.29,7.44,13.8,9.99,21.23,5.7C232.12,85.88,234.67,76.38,230.38,68.94 M243.3,128
		c0,6.99-5.67,12.65-12.65,12.65c-6.99,0-12.65-5.66-12.65-12.65c0-6.99,5.66-12.65,12.65-12.65
		C237.63,115.35,243.3,121.01,243.3,128 M246.19,128c0-8.59-6.96-15.55-15.55-15.55S215.1,119.41,215.1,128
		c0,8.59,6.96,15.55,15.55,15.55S246.19,136.59,246.19,128"/>
	<path style="clip-path:url(#SVGID_00000120542568051673674420000014198137315559080327_);fill:#FFFFFF;" d="M211.68,176.27
		c-1.67,2.89-0.68,6.58,2.21,8.25c2.89,1.67,6.58,0.68,8.25-2.21c1.67-2.89,0.68-6.58-2.21-8.25
		C217.04,172.39,213.35,173.39,211.68,176.27 M33.5,123.3c-2.59-4.5-8.34-6.04-12.84-3.44c-4.5,2.59-6.04,8.34-3.44,12.84
		c2.59,4.5,8.34,6.04,12.84,3.44C34.55,133.55,36.09,127.8,33.5,123.3 M44.32,73.69c-1.67-2.89-5.36-3.88-8.25-2.21
		c-2.89,1.67-3.88,5.36-2.21,8.25c1.67,2.89,5.36,3.88,8.25,2.21C45,80.27,45.99,76.58,44.32,73.69 M44.32,176.27
		c-1.67-2.89-5.36-3.88-8.25-2.21c-2.89,1.67-3.88,5.36-2.21,8.25c1.67,2.89,5.36,3.88,8.25,2.21
		C45,182.86,45.99,179.16,44.32,176.27 M84.82,34.41c-2.59-4.5-8.34-6.04-12.84-3.44c-4.5,2.59-6.04,8.34-3.44,12.84
		c2.59,4.5,8.34,6.04,12.84,3.44C85.87,44.65,87.41,38.91,84.82,34.41 M84.82,212.2c-2.59-4.5-8.34-6.04-12.84-3.44
		c-4.5,2.59-6.04,8.34-3.44,12.84c2.59,4.5,8.34,6.04,12.84,3.45C85.87,222.44,87.41,216.69,84.82,212.2 M133.23,22.34
		c-1.67-2.89-5.36-3.88-8.25-2.21c-2.89,1.67-3.88,5.36-2.21,8.25c1.67,2.89,5.36,3.88,8.25,2.21
		C133.91,28.92,134.9,25.23,133.23,22.34 M133.23,227.63c-1.67-2.89-5.36-3.88-8.25-2.21c-2.89,1.67-3.88,5.36-2.21,8.25
		c1.67,2.89,5.36,3.88,8.25,2.21C133.91,234.21,134.9,230.52,133.23,227.63 M187.46,43.8c2.59-4.5,1.05-10.24-3.45-12.84
		c-4.49-2.59-10.24-1.05-12.84,3.44c-2.59,4.5-1.05,10.24,3.44,12.84C179.12,49.84,184.87,48.3,187.46,43.8 M187.46,221.59
		c2.59-4.49,1.05-10.24-3.45-12.84c-4.49-2.59-10.24-1.05-12.84,3.44c-2.59,4.5-1.05,10.24,3.44,12.84
		C179.12,227.63,184.87,226.08,187.46,221.59 M222.14,79.73c1.67-2.89,0.68-6.58-2.21-8.25c-2.89-1.67-6.58-0.68-8.25,2.21
		c-1.67,2.89-0.68,6.58,2.21,8.25C216.78,83.61,220.48,82.61,222.14,79.73 M235.34,119.86c-4.5-2.59-10.24-1.05-12.84,3.44
		c-2.59,4.5-1.05,10.24,3.44,12.84c4.5,2.59,10.24,1.05,12.84-3.44C241.38,128.2,239.84,122.45,235.34,119.86"/>
	<path style="clip-path:url(#SVGID_00000120542568051673674420000014198137315559080327_);fill:#FFFFFF;" d="M122.74,124.95
		c0.92,6.4,8.33,4.93,8.33,4.93c-1.59-0.57-4.6-2.54-2.93-6.48c2.14-5.02,11.89-2.51,8.86,7.1c-2.75,8.72-18.17,8.37-19.56-2.38
		c-1.59-12.25,10.56-17.09,10.56-17.09c-9.37,0-16.96,7.6-16.96,16.96c0,9.37,7.59,16.96,16.96,16.96s17.13-7.6,16.96-16.96
		C144.66,111.24,121,112.83,122.74,124.95"/>
	<path style="clip-path:url(#SVGID_00000120542568051673674420000014198137315559080327_);fill:#FFFFFF;" d="M128.11,87.85
		c0,0-5.93,8.91,0,17.86C128.11,105.71,133.55,98.57,128.11,87.85"/>
	<path style="clip-path:url(#SVGID_00000120542568051673674420000014198137315559080327_);fill:#FFFFFF;" d="M128.11,150.29
		c0,0-5.93,8.91,0,17.86C128.11,168.15,133.55,161.01,128.11,150.29"/>
	<path style="clip-path:url(#SVGID_00000120542568051673674420000014198137315559080327_);fill:#FFFFFF;" d="M87.85,127.89
		c0,0,8.91,5.93,17.86,0C105.71,127.89,98.57,122.45,87.85,127.89"/>
	<path style="clip-path:url(#SVGID_00000120542568051673674420000014198137315559080327_);fill:#FFFFFF;" d="M150.29,127.89
		c0,0,8.91,5.93,17.86,0C168.15,127.89,161.01,122.45,150.29,127.89"/>
	<path style="clip-path:url(#SVGID_00000120542568051673674420000014198137315559080327_);fill:#FFFFFF;" d="M93,147.68
		c0,0,10.68,0.77,15.54-8.79C108.54,138.88,99.65,137.66,93,147.68"/>
	<path style="clip-path:url(#SVGID_00000120542568051673674420000014198137315559080327_);fill:#FFFFFF;" d="M147.35,116.93
		c0,0,10.68,0.77,15.54-8.79C162.89,108.13,154,106.92,147.35,116.93"/>
	<path style="clip-path:url(#SVGID_00000120542568051673674420000014198137315559080327_);fill:#FFFFFF;" d="M107.27,162.32
		c0,0,9.67-4.58,9.2-15.31C116.47,147.01,108.13,150.33,107.27,162.32"/>
	<path style="clip-path:url(#SVGID_00000120542568051673674420000014198137315559080327_);fill:#FFFFFF;" d="M139.43,108.79
		c0,0,9.67-4.58,9.2-15.31C148.63,93.49,140.3,96.8,139.43,108.79"/>
	<path style="clip-path:url(#SVGID_00000120542568051673674420000014198137315559080327_);fill:#FFFFFF;" d="M147.72,162.85
		c0,0,0.77-10.68-8.79-15.54C138.93,147.3,137.71,156.19,147.72,162.85"/>
	<path style="clip-path:url(#SVGID_00000120542568051673674420000014198137315559080327_);fill:#FFFFFF;" d="M116.97,108.5
		c0,0,0.77-10.68-8.79-15.54C108.18,92.96,106.96,101.85,116.97,108.5"/>
	<path style="clip-path:url(#SVGID_00000120542568051673674420000014198137315559080327_);fill:#FFFFFF;" d="M162.36,148.57
		c0,0-4.58-9.67-15.31-9.2C147.05,139.38,150.37,147.71,162.36,148.57"/>
	<path style="clip-path:url(#SVGID_00000120542568051673674420000014198137315559080327_);fill:#FFFFFF;" d="M108.84,116.41
		c0,0-4.58-9.67-15.31-9.2C93.53,107.22,96.85,115.55,108.84,116.41"/>
</g>
</svg>
